<?xml version="1.0" encoding="UTF-8"?>
<!DOCTYPE svg PUBLIC "-//W3C//DTD SVG 1.1//EN" "http://www.w3.org/Graphics/SVG/1.1/DTD/svg11.dtd">
<svg xmlns="http://www.w3.org/2000/svg" version="1.1" width="512px" height="512px" style="shape-rendering:geometricPrecision; text-rendering:geometricPrecision; image-rendering:optimizeQuality; fill-rule:evenodd; clip-rule:evenodd" xmlns:xlink="http://www.w3.org/1999/xlink">
<g><path style="opacity:0.995" fill="#000000" d="M 34.5,-0.5 C 181.833,-0.5 329.167,-0.5 476.5,-0.5C 494.5,4.83333 506.167,16.5 511.5,34.5C 511.5,141.5 511.5,248.5 511.5,355.5C 506.348,373.484 494.682,384.984 476.5,390C 427.834,390.5 379.168,390.667 330.5,390.5C 330.168,401.187 330.501,411.854 331.5,422.5C 363.533,431.366 383.033,452.032 390,484.5C 390.667,490.5 390.667,496.5 390,502.5C 388.312,506.685 385.479,509.685 381.5,511.5C 297.5,511.5 213.5,511.5 129.5,511.5C 125.521,509.685 122.688,506.685 121,502.5C 119.494,467.675 134.328,442.509 165.5,427C 170.141,425.397 174.808,423.897 179.5,422.5C 180.499,411.854 180.832,401.187 180.5,390.5C 131.832,390.667 83.1655,390.5 34.5,390C 16.3183,384.984 4.65165,373.484 -0.5,355.5C -0.5,248.5 -0.5,141.5 -0.5,34.5C 4.83333,16.5 16.5,4.83333 34.5,-0.5 Z M 44.5,29.5 C 185.167,29.3333 325.834,29.5 466.5,30C 475.333,30.8333 480.167,35.6667 481,44.5C 481.5,129.833 481.667,215.166 481.5,300.5C 330.833,300.5 180.167,300.5 29.5,300.5C 29.3333,215.166 29.5,129.833 30,44.5C 31.0117,35.6566 35.8451,30.6566 44.5,29.5 Z M 329.5,92.5 C 344.942,100.723 359.942,109.723 374.5,119.5C 359.833,128.5 345.167,137.5 330.5,146.5C 315.833,137.5 301.167,128.5 286.5,119.5C 301.066,110.725 315.399,101.725 329.5,92.5 Z M 270.5,147.5 C 285.393,155.713 300.059,164.38 314.5,173.5C 315.833,191.5 315.833,209.5 314.5,227.5C 300.167,218.833 285.833,210.167 271.5,201.5C 270.5,183.512 270.167,165.512 270.5,147.5 Z M 388.5,147.5 C 389.832,156.141 390.498,165.141 390.5,174.5C 390.167,183.5 389.833,192.5 389.5,201.5C 375.167,210.167 360.833,218.833 346.5,227.5C 345.167,209.5 345.167,191.5 346.5,173.5C 360.805,165.168 374.805,156.502 388.5,147.5 Z M 29.5,330.5 C 180.167,330.5 330.833,330.5 481.5,330.5C 482.011,338.022 481.178,345.355 479,352.5C 476.113,357.039 471.947,359.539 466.5,360C 325.833,360.667 185.167,360.667 44.5,360C 35.6667,359.167 30.8333,354.333 30,345.5C 29.5007,340.511 29.3341,335.511 29.5,330.5 Z M 210.5,390.5 C 240.5,390.5 270.5,390.5 300.5,390.5C 300.5,400.833 300.5,411.167 300.5,421.5C 270.5,421.5 240.5,421.5 210.5,421.5C 210.5,411.167 210.5,400.833 210.5,390.5 Z M 195.5,451.5 C 238.525,451.05 281.525,451.55 324.5,453C 340.078,456.91 351.078,466.243 357.5,481C 289.5,481.667 221.5,481.667 153.5,481C 161.926,463.053 175.926,453.22 195.5,451.5 Z"/></g>
<g><path style="opacity:0.976" fill="#000000" d="M 328.5,58.5 C 332.319,58.605 335.986,59.4383 339.5,61C 363,75.5846 386.667,89.9179 410.5,104C 413.63,106.128 416.463,108.628 419,111.5C 420.154,129.079 420.654,146.745 420.5,164.5C 420.647,182.563 420.147,200.563 419,218.5C 416.795,221.04 414.295,223.207 411.5,225C 387.667,239.082 364,253.415 340.5,268C 333.833,271.333 327.167,271.333 320.5,268C 297,253.415 273.333,239.082 249.5,225C 246.705,223.207 244.205,221.04 242,218.5C 240.853,200.73 240.353,182.896 240.5,165C 240.353,147.104 240.853,129.27 242,111.5C 244.537,108.628 247.37,106.128 250.5,104C 276.457,88.4957 302.457,73.329 328.5,58.5 Z M 329.5,92.5 C 315.399,101.725 301.066,110.725 286.5,119.5C 301.167,128.5 315.833,137.5 330.5,146.5C 345.167,137.5 359.833,128.5 374.5,119.5C 359.942,109.723 344.942,100.723 329.5,92.5 Z M 270.5,147.5 C 270.167,165.512 270.5,183.512 271.5,201.5C 285.833,210.167 300.167,218.833 314.5,227.5C 315.833,209.5 315.833,191.5 314.5,173.5C 300.059,164.38 285.393,155.713 270.5,147.5 Z M 388.5,147.5 C 374.805,156.502 360.805,165.168 346.5,173.5C 345.167,191.5 345.167,209.5 346.5,227.5C 360.833,218.833 375.167,210.167 389.5,201.5C 389.833,192.5 390.167,183.5 390.5,174.5C 390.498,165.141 389.832,156.141 388.5,147.5 Z"/></g>
<g><path style="opacity:0.979" fill="#000000" d="M 98.5,90.5 C 122.836,90.3334 147.169,90.5 171.5,91C 179.915,95.3476 182.748,102.181 180,111.5C 178.5,115.667 175.667,118.5 171.5,120C 147.167,120.667 122.833,120.667 98.5,120C 89.5253,114.848 87.0253,107.348 91,97.5C 93.0147,94.5883 95.5147,92.255 98.5,90.5 Z"/></g>
<g><path style="opacity:0.979" fill="#000000" d="M 98.5,150.5 C 122.836,150.333 147.169,150.5 171.5,151C 179.915,155.348 182.748,162.181 180,171.5C 178.5,175.667 175.667,178.5 171.5,180C 147.167,180.667 122.833,180.667 98.5,180C 89.5253,174.848 87.0253,167.348 91,157.5C 93.0147,154.588 95.5147,152.255 98.5,150.5 Z"/></g>
<g><path style="opacity:0.979" fill="#000000" d="M 98.5,210.5 C 122.836,210.333 147.169,210.5 171.5,211C 179.915,215.348 182.748,222.181 180,231.5C 178.5,235.667 175.667,238.5 171.5,240C 147.167,240.667 122.833,240.667 98.5,240C 89.5253,234.848 87.0253,227.348 91,217.5C 93.0147,214.588 95.5147,212.255 98.5,210.5 Z"/></g>
</svg>
