<?xml version="1.0" encoding="UTF-8"?>
<!DOCTYPE svg PUBLIC "-//W3C//DTD SVG 1.1//EN" "http://www.w3.org/Graphics/SVG/1.1/DTD/svg11.dtd">
<svg xmlns="http://www.w3.org/2000/svg" version="1.1" width="512px" height="512px" style="shape-rendering:geometricPrecision; text-rendering:geometricPrecision; image-rendering:optimizeQuality; fill-rule:evenodd; clip-rule:evenodd" xmlns:xlink="http://www.w3.org/1999/xlink">
<g><path style="opacity:0.949" fill="#000000" d="M -0.5,368.5 C -0.5,260.5 -0.5,152.5 -0.5,44.5C 4.56015,30.1069 14.5601,20.9403 29.5,17C 45.1667,16.3333 60.8333,16.3333 76.5,17C 80.5,21.6667 80.5,26.3333 76.5,31C 63.8333,31.3333 51.1667,31.6667 38.5,32C 26.8583,33.3065 19.0249,39.4731 15,50.5C 13.5172,143.807 13.0172,237.14 13.5,330.5C 19.5,330.5 25.5,330.5 31.5,330.5C 31.005,237.418 31.505,144.418 33,51.5C 33.7504,50.8742 34.5838,50.3742 35.5,50C 181.5,49.3333 327.5,49.3333 473.5,50C 474.416,50.3742 475.25,50.8742 476,51.5C 477.495,144.418 477.995,237.418 477.5,330.5C 483.167,330.5 488.833,330.5 494.5,330.5C 494.667,237.166 494.5,143.833 494,50.5C 489.975,39.4731 482.142,33.3065 470.5,32C 346.167,31.6667 221.833,31.3333 97.5,31C 93.5,26.3333 93.5,21.6667 97.5,17C 224.833,16.3333 352.167,16.3333 479.5,17C 495.667,21.1667 505.833,31.3333 510,47.5C 510.667,153.167 510.667,258.833 510,364.5C 505.191,382.308 493.691,392.808 475.5,396C 423.834,396.5 372.168,396.667 320.5,396.5C 320.5,413.167 320.5,429.833 320.5,446.5C 338.902,446.039 357.235,446.539 375.5,448C 376.701,448.903 377.535,450.069 378,451.5C 378.667,464.5 378.667,477.5 378,490.5C 377.215,492.286 376.049,493.786 374.5,495C 294.5,495.667 214.5,495.667 134.5,495C 132.951,493.786 131.785,492.286 131,490.5C 130.333,477.5 130.333,464.5 131,451.5C 131.465,450.069 132.299,448.903 133.5,448C 151.765,446.539 170.098,446.039 188.5,446.5C 188.5,429.833 188.5,413.167 188.5,396.5C 136.832,396.667 85.1656,396.5 33.5,396C 16.8964,393.219 5.56306,384.053 -0.5,368.5 Z M 47.5,65.5 C 185.5,65.5 323.5,65.5 461.5,65.5C 461.5,153.833 461.5,242.167 461.5,330.5C 323.5,330.5 185.5,330.5 47.5,330.5C 47.5,242.167 47.5,153.833 47.5,65.5 Z M 183.5,98.5 C 186.32,98.2475 188.986,98.7475 191.5,100C 197.682,106.014 203.682,112.181 209.5,118.5C 198.181,130.319 186.681,141.986 175,153.5C 168.667,147.167 162.333,140.833 156,134.5C 153.946,130.971 154.279,127.638 157,124.5C 165.728,115.604 174.562,106.937 183.5,98.5 Z M 314.5,102.5 C 326.914,113.41 338.914,124.91 350.5,137C 334,153.5 317.5,170 301,186.5C 289.319,174.986 277.819,163.319 266.5,151.5C 270.833,146.5 275.5,141.833 280.5,137.5C 283.676,141.186 287.509,143.852 292,145.5C 298.915,144.239 301.249,140.239 299,133.5C 297.023,130.688 294.856,128.022 292.5,125.5C 299.855,117.813 307.188,110.146 314.5,102.5 Z M 221.5,130.5 C 260.465,168.965 299.299,207.632 338,246.5C 338.667,247.167 338.667,247.833 338,248.5C 334.833,251.667 331.667,254.833 328.5,258C 327.833,258.667 327.167,258.667 326.5,258C 287.833,219.333 249.167,180.667 210.5,142C 214.37,138.298 218.037,134.464 221.5,130.5 Z M 197.5,154.5 C 237.25,192.749 276.583,231.582 315.5,271C 311.667,274.833 307.833,278.667 304,282.5C 265.333,243.833 226.667,205.167 188,166.5C 187.333,165.833 187.333,165.167 188,164.5C 191.371,161.297 194.538,157.964 197.5,154.5 Z M 207.5,209.5 C 219.479,220.812 231.146,232.479 242.5,244.5C 226.5,261.167 210.167,277.5 193.5,293.5C 181.681,282.181 170.014,270.681 158.5,259C 164,253.5 169.5,248 175,242.5C 177.537,245.372 180.37,247.872 183.5,250C 191.667,251.167 195.167,247.667 194,239.5C 191.872,236.37 189.372,233.537 186.5,231C 193.703,223.965 200.703,216.798 207.5,209.5 Z M 341.5,267.5 C 342.49,273.645 342.823,279.978 342.5,286.5C 336.158,286.666 329.825,286.5 323.5,286C 329.703,279.965 335.703,273.798 341.5,267.5 Z M 13.5,346.5 C 173.833,346.5 334.167,346.5 494.5,346.5C 497.124,363.444 490.457,374.611 474.5,380C 327.833,380.667 181.167,380.667 34.5,380C 24.4334,377.6 17.9334,371.434 15,361.5C 13.9502,356.552 13.4502,351.552 13.5,346.5 Z M 204.5,396.5 C 237.833,396.5 271.167,396.5 304.5,396.5C 304.5,413.167 304.5,429.833 304.5,446.5C 296.167,446.5 287.833,446.5 279.5,446.5C 279.92,436.753 279.42,427.086 278,417.5C 276.786,415.951 275.286,414.785 273.5,414C 260.833,413.333 248.167,413.333 235.5,414C 233.714,414.785 232.214,415.951 231,417.5C 229.58,427.086 229.08,436.753 229.5,446.5C 221.167,446.5 212.833,446.5 204.5,446.5C 204.5,429.833 204.5,413.167 204.5,396.5 Z M 245.5,429.5 C 251.5,429.5 257.5,429.5 263.5,429.5C 263.5,435.167 263.5,440.833 263.5,446.5C 257.5,446.5 251.5,446.5 245.5,446.5C 245.5,440.833 245.5,435.167 245.5,429.5 Z M 146.5,462.5 C 218.5,462.5 290.5,462.5 362.5,462.5C 362.5,468.167 362.5,473.833 362.5,479.5C 290.5,479.5 218.5,479.5 146.5,479.5C 146.5,473.833 146.5,468.167 146.5,462.5 Z"/></g>
<g><path style="opacity:0.924" fill="#000000" d="M 180.5,82.5 C 187.526,81.8048 194.193,82.9715 200.5,86C 218.347,104.014 236.347,121.847 254.5,139.5C 273.653,120.847 292.653,102.014 311.5,83C 314.634,82.2099 317.634,82.5432 320.5,84C 336.667,100.167 352.833,116.333 369,132.5C 370.85,135.537 370.85,138.537 369,141.5C 350.167,160.333 331.333,179.167 312.5,198C 328.029,213.195 343.196,228.695 358,244.5C 358.333,259.833 358.667,275.167 359,290.5C 363.418,294.247 367.084,298.58 370,303.5C 370.488,311.669 366.654,314.836 358.5,313C 354.2,309.702 350.2,306.035 346.5,302C 330.833,301.667 315.167,301.333 299.5,301C 284.653,285.986 269.653,271.153 254.5,256.5C 235.347,275.153 216.347,293.986 197.5,313C 195.167,313.667 192.833,313.667 190.5,313C 173.362,296.862 156.528,280.362 140,263.5C 138.15,260.463 138.15,257.463 140,254.5C 158.833,235.667 177.667,216.833 196.5,198C 178.667,180.167 160.833,162.333 143,144.5C 136.795,134.273 137.128,124.273 144,114.5C 152.833,105.667 161.667,96.8333 170.5,88C 173.767,85.8703 177.1,84.037 180.5,82.5 Z M 183.5,98.5 C 174.562,106.937 165.728,115.604 157,124.5C 154.279,127.638 153.946,130.971 156,134.5C 162.333,140.833 168.667,147.167 175,153.5C 186.681,141.986 198.181,130.319 209.5,118.5C 203.682,112.181 197.682,106.014 191.5,100C 188.986,98.7475 186.32,98.2475 183.5,98.5 Z M 314.5,102.5 C 307.188,110.146 299.855,117.813 292.5,125.5C 294.856,128.022 297.023,130.688 299,133.5C 301.249,140.239 298.915,144.239 292,145.5C 287.509,143.852 283.676,141.186 280.5,137.5C 275.5,141.833 270.833,146.5 266.5,151.5C 277.819,163.319 289.319,174.986 301,186.5C 317.5,170 334,153.5 350.5,137C 338.914,124.91 326.914,113.41 314.5,102.5 Z M 221.5,130.5 C 218.037,134.464 214.37,138.298 210.5,142C 249.167,180.667 287.833,219.333 326.5,258C 327.167,258.667 327.833,258.667 328.5,258C 331.667,254.833 334.833,251.667 338,248.5C 338.667,247.833 338.667,247.167 338,246.5C 299.299,207.632 260.465,168.965 221.5,130.5 Z M 197.5,154.5 C 194.538,157.964 191.371,161.297 188,164.5C 187.333,165.167 187.333,165.833 188,166.5C 226.667,205.167 265.333,243.833 304,282.5C 307.833,278.667 311.667,274.833 315.5,271C 276.583,231.582 237.25,192.749 197.5,154.5 Z M 207.5,209.5 C 200.703,216.798 193.703,223.965 186.5,231C 189.372,233.537 191.872,236.37 194,239.5C 195.167,247.667 191.667,251.167 183.5,250C 180.37,247.872 177.537,245.372 175,242.5C 169.5,248 164,253.5 158.5,259C 170.014,270.681 181.681,282.181 193.5,293.5C 210.167,277.5 226.5,261.167 242.5,244.5C 231.146,232.479 219.479,220.812 207.5,209.5 Z M 341.5,267.5 C 335.703,273.798 329.703,279.965 323.5,286C 329.825,286.5 336.158,286.666 342.5,286.5C 342.823,279.978 342.49,273.645 341.5,267.5 Z"/></g>
</svg>
