<?xml version="1.0" encoding="UTF-8"?>
<!DOCTYPE svg PUBLIC "-//W3C//DTD SVG 1.1//EN" "http://www.w3.org/Graphics/SVG/1.1/DTD/svg11.dtd">
<svg xmlns="http://www.w3.org/2000/svg" version="1.1" width="512px" height="512px" style="shape-rendering:geometricPrecision; text-rendering:geometricPrecision; image-rendering:optimizeQuality; fill-rule:evenodd; clip-rule:evenodd" xmlns:xlink="http://www.w3.org/1999/xlink">
<g><path style="opacity:0.875" fill="#000000" d="M 511.5,420.5 C 511.5,424.5 511.5,428.5 511.5,432.5C 507.321,443.853 502.821,455.186 498,466.5C 493.383,472.222 487.55,476.056 480.5,478C 330.5,478.667 180.5,478.667 30.5,478C 23.4501,476.056 17.6167,472.222 13,466.5C 8.17911,455.186 3.67911,443.853 -0.5,432.5C -0.5,428.5 -0.5,424.5 -0.5,420.5C 5.25453,410.673 13.9212,407.007 25.5,409.5C 25.6667,332.499 25.5,255.499 25,178.5C 17.3803,171.239 10.7136,163.239 5,154.5C 4.33333,120.167 4.33333,85.8333 5,51.5C 5.77507,49.7769 7.1084,48.7769 9,48.5C 26.083,57.2901 42.583,56.4568 58.5,46C 62.9177,42.2533 66.5844,37.9199 69.5,33C 71.5,32.3333 73.5,32.3333 75.5,33C 83.5942,46.5529 95.5942,53.7196 111.5,54.5C 120.102,53.5994 128.435,51.5994 136.5,48.5C 137.748,49.0402 138.915,49.7069 140,50.5C 140.5,72.4975 140.667,94.4975 140.5,116.5C 247.834,116.333 355.167,116.5 462.5,117C 475.996,120.165 483.496,128.665 485,142.5C 485.5,231.499 485.667,320.499 485.5,409.5C 497.079,407.007 505.745,410.673 511.5,420.5 Z M 71.5,45.5 C 75.6061,48.4289 79.6061,51.5956 83.5,55C 95.6004,62.0586 108.6,64.3919 122.5,62C 125.506,61.6676 128.34,60.8343 131,59.5C 131.167,74.6667 131.333,89.8333 131.5,105C 131.652,120.922 131.152,136.756 130,152.5C 114.871,172.797 95.3713,187.131 71.5,195.5C 47.7843,186.731 28.6176,172.065 14,151.5C 13.3333,120.833 13.3333,90.1667 14,59.5C 36.2765,66.9719 55.4431,62.3052 71.5,45.5 Z M 140.5,125.5 C 247.501,125.333 354.501,125.5 461.5,126C 469.444,128.277 474.278,133.444 476,141.5C 476.5,230.833 476.667,320.166 476.5,409.5C 329.167,409.5 181.833,409.5 34.5,409.5C 34.1667,335.164 34.5,260.83 35.5,186.5C 46.9199,195.062 59.4199,201.728 73,206.5C 95.3031,197.854 114.636,184.854 131,167.5C 133.911,164.01 136.578,160.344 139,156.5C 140.451,146.271 140.951,135.938 140.5,125.5 Z M 365.5,194.5 C 388.168,192.361 403.001,202.027 410,223.5C 411.252,232.12 411.752,240.787 411.5,249.5C 386.167,249.5 360.833,249.5 335.5,249.5C 335.334,241.826 335.5,234.159 336,226.5C 339.8,210.202 349.633,199.536 365.5,194.5 Z M 328.5,258.5 C 359.502,258.333 390.502,258.5 421.5,259C 424.381,260.251 426.214,262.417 427,265.5C 427.667,290.833 427.667,316.167 427,341.5C 425.604,346.228 422.438,348.728 417.5,349C 388.833,349.667 360.167,349.667 331.5,349C 327.501,348.332 324.668,346.165 323,342.5C 322.333,316.5 322.333,290.5 323,264.5C 324.36,261.977 326.193,259.977 328.5,258.5 Z M 12.5,418.5 C 66.5,418.5 120.5,418.5 174.5,418.5C 173.736,426.185 174.902,433.519 178,440.5C 180.205,443.04 182.705,445.207 185.5,447C 208.772,448.152 232.106,448.652 255.5,448.5C 278.894,448.652 302.228,448.152 325.5,447C 329.719,444.448 332.886,440.948 335,436.5C 335.499,430.509 335.666,424.509 335.5,418.5C 389.834,418.333 444.168,418.5 498.5,419C 502.557,420.947 504.057,424.114 503,428.5C 499.667,437.833 496.333,447.167 493,456.5C 490.108,462.392 485.608,466.559 479.5,469C 330.167,469.667 180.833,469.667 31.5,469C 24.0263,466.86 19.193,462.026 17,454.5C 13.8289,444.987 10.6622,435.487 7.5,426C 7.83109,422.52 9.49776,420.02 12.5,418.5 Z M 183.5,418.5 C 231.5,418.5 279.5,418.5 327.5,418.5C 327.75,423.58 327.25,428.58 326,433.5C 324.833,436 323,437.833 320.5,439C 277.167,439.667 233.833,439.667 190.5,439C 188.376,437.878 186.543,436.378 185,434.5C 183.661,429.264 183.161,423.93 183.5,418.5 Z"/></g>
<g><path style="opacity:0.852" fill="#000000" d="M 110.5,89.5 C 115.924,90.0172 117.424,92.6839 115,97.5C 98.5,114 82,130.5 65.5,147C 63.5,147.667 61.5,147.667 59.5,147C 49.3333,136.833 39.1667,126.667 29,116.5C 27.8333,111 30,108.833 35.5,110C 44.3475,119.014 53.3475,127.848 62.5,136.5C 78.5475,120.785 94.5475,105.118 110.5,89.5 Z"/></g>
<g><path style="opacity:0.889" fill="#000000" d="M 366.5,185.5 C 391.685,184.215 408.852,195.215 418,218.5C 419.37,228.777 419.87,239.111 419.5,249.5C 428.088,250.542 433.588,255.209 436,263.5C 436.667,290.167 436.667,316.833 436,343.5C 434.264,350.237 430.097,354.737 423.5,357C 391.167,357.667 358.833,357.667 326.5,357C 320.359,354.859 316.193,350.693 314,344.5C 313.333,317.167 313.333,289.833 314,262.5C 315.967,256.699 319.801,252.699 325.5,250.5C 326.134,240.47 326.967,230.47 328,220.5C 334.102,201.224 346.935,189.557 366.5,185.5 Z M 365.5,194.5 C 349.633,199.536 339.8,210.202 336,226.5C 335.5,234.159 335.334,241.826 335.5,249.5C 360.833,249.5 386.167,249.5 411.5,249.5C 411.752,240.787 411.252,232.12 410,223.5C 403.001,202.027 388.168,192.361 365.5,194.5 Z M 328.5,258.5 C 326.193,259.977 324.36,261.977 323,264.5C 322.333,290.5 322.333,316.5 323,342.5C 324.668,346.165 327.501,348.332 331.5,349C 360.167,349.667 388.833,349.667 417.5,349C 422.438,348.728 425.604,346.228 427,341.5C 427.667,316.167 427.667,290.833 427,265.5C 426.214,262.417 424.381,260.251 421.5,259C 390.502,258.5 359.502,258.333 328.5,258.5 Z"/></g>
<g><path style="opacity:0.878" fill="#000000" d="M 67.5,261.5 C 98.5018,261.333 129.502,261.5 160.5,262C 162.013,264.916 161.68,267.582 159.5,270C 129.167,270.667 98.8333,270.667 68.5,270C 64.8736,267.603 64.5402,264.769 67.5,261.5 Z"/></g>
<g><path style="opacity:0.877" fill="#000000" d="M 67.5,288.5 C 98.1685,288.333 128.835,288.5 159.5,289C 162.167,291.667 162.167,294.333 159.5,297C 128.833,297.667 98.1667,297.667 67.5,297C 64.9387,294.177 64.9387,291.343 67.5,288.5 Z"/></g>
<g><path style="opacity:0.88" fill="#000000" d="M 68.5,315.5 C 98.5019,315.333 128.502,315.5 158.5,316C 161.608,317.94 162.275,320.606 160.5,324C 129.5,324.667 98.5,324.667 67.5,324C 64.7306,320.806 65.064,317.973 68.5,315.5 Z"/></g>
</svg>
