<?xml version="1.0" encoding="UTF-8"?>
<!DOCTYPE svg PUBLIC "-//W3C//DTD SVG 1.1//EN" "http://www.w3.org/Graphics/SVG/1.1/DTD/svg11.dtd">
<svg xmlns="http://www.w3.org/2000/svg" version="1.1" width="512px" height="512px" style="shape-rendering:geometricPrecision; text-rendering:geometricPrecision; image-rendering:optimizeQuality; fill-rule:evenodd; clip-rule:evenodd" xmlns:xlink="http://www.w3.org/1999/xlink">
<g><path style="opacity:0.943" fill="#000000" d="M 174.5,-0.5 C 184.5,-0.5 194.5,-0.5 204.5,-0.5C 238.768,5.59888 265.101,23.4322 283.5,53C 319.053,42.4419 349.887,50.2753 376,76.5C 381.291,83.1339 385.791,90.3006 389.5,98C 415.533,100.097 433.367,113.263 443,137.5C 445.001,143.678 445.834,150.012 445.5,156.5C 439.833,156.5 434.167,156.5 428.5,156.5C 424.378,126.885 407.378,113.385 377.5,116C 363.864,78.5078 337.197,62.5078 297.5,68C 289.907,70.2137 282.74,73.3803 276,77.5C 253.889,29.3602 216.723,10.1936 164.5,20C 119.884,36.0297 98.2171,67.863 99.5,115.5C 70.3676,113.812 53.7009,127.312 49.5,156C 51.3376,179.17 63.6709,192.836 86.5,197C 165.166,197.5 243.833,197.667 322.5,197.5C 322.5,203.167 322.5,208.833 322.5,214.5C 308.5,214.5 294.5,214.5 280.5,214.5C 280.5,220.5 280.5,226.5 280.5,232.5C 296.817,235.954 312.983,239.954 329,244.5C 329.169,237.476 329.669,230.476 330.5,223.5C 333.91,222.751 337.244,221.751 340.5,220.5C 337.876,217.433 336.042,214.1 335,210.5C 346,199.5 357,188.5 368,177.5C 371.508,179.587 374.842,181.92 378,184.5C 378.644,180.779 379.477,177.113 380.5,173.5C 396.486,172.501 412.486,172.167 428.5,172.5C 428.513,176.407 429.347,180.074 431,183.5C 434,181.5 437,179.5 440,177.5C 451,188.5 462,199.5 473,210.5C 471.89,214.215 470.057,217.715 467.5,221C 470.859,221.771 474.192,222.605 477.5,223.5C 478.499,239.486 478.833,255.486 478.5,271.5C 474.63,271.697 470.963,272.531 467.5,274C 470.583,277.003 472.416,280.503 473,284.5C 466.833,290.667 460.667,296.833 454.5,303C 461.573,310.777 464.24,319.943 462.5,330.5C 463.621,342.07 461.121,352.737 455,362.5C 454.667,396.833 454.333,431.167 454,465.5C 450.576,489.41 437.409,504.743 414.5,511.5C 407.833,511.5 401.167,511.5 394.5,511.5C 384.083,508.953 375.083,503.787 367.5,496C 261.167,495.5 154.834,495.333 48.5,495.5C 48.3333,440.499 48.5,385.499 49,330.5C 54.7627,288.799 77.5961,261.299 117.5,248C 138.483,242.671 159.483,237.504 180.5,232.5C 180.5,226.5 180.5,220.5 180.5,214.5C 147.498,214.667 114.498,214.5 81.5,214C 50.5394,207.212 34.2061,188.045 32.5,156.5C 32.5822,134.5 41.9155,117.666 60.5,106C 67.4657,102.425 74.6324,99.5922 82,97.5C 90.1052,43.2316 120.939,10.565 174.5,-0.5 Z M 394.5,189.5 C 400.833,189.5 407.167,189.5 413.5,189.5C 413.933,192.166 414.433,194.832 415,197.5C 415.5,198.667 416.333,199.5 417.5,200C 421.956,201.541 426.289,203.374 430.5,205.5C 433.086,203.957 435.586,202.291 438,200.5C 442.349,204.682 446.515,209.015 450.5,213.5C 448.722,215.945 447.389,218.611 446.5,221.5C 448.43,226.122 450.263,230.788 452,235.5C 454.997,236.866 458.164,237.533 461.5,237.5C 461.83,243.868 461.496,250.202 460.5,256.5C 457.553,257.423 454.553,258.089 451.5,258.5C 450.265,263.473 448.598,268.306 446.5,273C 447.201,275.38 448.367,277.547 450,279.5C 450.667,280.5 450.667,281.5 450,282.5C 445.5,287 441,291.5 436.5,296C 415.167,296.667 393.833,296.667 372.5,296C 367.318,290.985 362.318,285.819 357.5,280.5C 359.043,277.914 360.709,275.414 362.5,273C 359.824,268.809 357.824,264.309 356.5,259.5C 353.435,257.75 350.102,256.75 346.5,256.5C 346.5,250.167 346.5,243.833 346.5,237.5C 349.833,237.167 353.167,236.833 356.5,236.5C 357.65,231.194 359.65,226.194 362.5,221.5C 360.197,218.754 358.697,215.754 358,212.5C 362.015,208.318 366.182,204.318 370.5,200.5C 373.167,202.167 375.833,203.833 378.5,205.5C 383.217,202.707 388.217,200.707 393.5,199.5C 393.833,196.167 394.167,192.833 394.5,189.5 Z M 198.5,214.5 C 220.167,214.5 241.833,214.5 263.5,214.5C 263.932,222.279 263.432,229.946 262,237.5C 251.667,249.833 241.333,262.167 231,274.5C 220.333,261.833 209.667,249.167 199,236.5C 198.5,229.174 198.334,221.841 198.5,214.5 Z M 399.5,231.5 C 414.61,230.77 421.11,237.77 419,252.5C 413.379,263.281 405.212,265.781 394.5,260C 387.325,252.749 386.659,244.916 392.5,236.5C 394.724,234.566 397.058,232.899 399.5,231.5 Z M 185.5,248.5 C 196.839,261.319 207.839,274.485 218.5,288C 208,298.5 197.5,309 187,319.5C 181.712,297.399 176.545,275.232 171.5,253C 176.274,251.481 180.941,249.981 185.5,248.5 Z M 274.5,249.5 C 278.913,249.853 283.246,250.686 287.5,252C 288.428,252.388 289.095,253.055 289.5,254C 284.43,276.112 279.597,298.278 275,320.5C 264.167,309.667 253.333,298.833 242.5,288C 253.378,275.293 264.045,262.46 274.5,249.5 Z M 153.5,256.5 C 154.927,258.148 155.76,260.148 156,262.5C 162.539,293.528 169.206,324.528 176,355.5C 184.681,346.652 193.514,337.986 202.5,329.5C 206.182,333.031 209.515,336.864 212.5,341C 201.649,376.409 190.649,411.742 179.5,447C 187.833,457.333 196.167,467.667 204.5,478C 180.502,478.5 156.502,478.667 132.5,478.5C 132.5,434.167 132.5,389.833 132.5,345.5C 126.5,345.5 120.5,345.5 114.5,345.5C 114.5,389.833 114.5,434.167 114.5,478.5C 98.5,478.5 82.5,478.5 66.5,478.5C 66.3333,428.499 66.5,378.499 67,328.5C 72.8558,298.314 90.0225,277.481 118.5,266C 130.328,262.962 141.994,259.796 153.5,256.5 Z M 306.5,256.5 C 313.804,258.493 321.138,260.493 328.5,262.5C 329.484,265.428 329.817,268.428 329.5,271.5C 333.407,271.513 337.074,272.347 340.5,274C 338.375,277.082 336.375,280.249 334.5,283.5C 340.652,290.152 346.985,296.652 353.5,303C 346.94,310.767 344.273,319.767 345.5,330C 344.476,342.199 347.309,353.366 354,363.5C 354.333,399.5 354.667,435.5 355,471.5C 355.662,473.813 356.162,476.146 356.5,478.5C 323.498,478.667 290.498,478.5 257.5,478C 266.108,467.901 274.108,457.401 281.5,446.5C 270.833,411.5 260.167,376.5 249.5,341.5C 251.697,336.96 254.697,332.96 258.5,329.5C 267.486,337.986 276.319,346.652 285,355.5C 292.639,322.61 299.806,289.61 306.5,256.5 Z M 229.5,301.5 C 235.422,305.751 240.755,310.751 245.5,316.5C 241.986,322.526 237.152,326.859 231,329.5C 229.5,329.333 228,329.167 226.5,329C 222.951,324.74 219.284,320.573 215.5,316.5C 220.188,311.48 224.855,306.48 229.5,301.5 Z M 369.5,313.5 C 392.502,313.333 415.502,313.5 438.5,314C 441.057,314.685 442.891,316.185 444,318.5C 444.92,328.242 444.587,337.908 443,347.5C 439.173,355.328 433.006,360.161 424.5,362C 409.445,362.934 394.445,362.6 379.5,361C 371.507,357.674 366.341,351.841 364,343.5C 363.333,335.167 363.333,326.833 364,318.5C 365.406,316.256 367.239,314.59 369.5,313.5 Z M 228.5,346.5 C 230.451,346.227 231.951,346.893 233,348.5C 242.439,380.149 252.272,411.649 262.5,443C 253.305,453.894 244.472,465.06 236,476.5C 230.794,479.616 226.461,478.616 223,473.5C 214.798,463.586 206.965,453.42 199.5,443C 209.479,410.899 219.146,378.732 228.5,346.5 Z M 371.5,376.5 C 373.767,377.423 376.1,378.256 378.5,379C 395.5,379.667 412.5,379.667 429.5,379C 431.813,378.338 434.146,377.838 436.5,377.5C 436.5,383.5 436.5,389.5 436.5,395.5C 414.833,395.5 393.167,395.5 371.5,395.5C 371.5,389.167 371.5,382.833 371.5,376.5 Z M 371.5,412.5 C 393.167,412.5 414.833,412.5 436.5,412.5C 436.667,431.17 436.5,449.836 436,468.5C 429.341,488.827 415.507,496.994 394.5,493C 384.026,489.193 376.859,482.026 373,471.5C 371.562,451.88 371.062,432.213 371.5,412.5 Z"/></g>
<g><path style="opacity:0.929" fill="#000000" d="M 177.5,32.5 C 181.5,32.5 185.5,32.5 189.5,32.5C 189.5,38.1667 189.5,43.8333 189.5,49.5C 157.71,52.2875 138.377,69.2875 131.5,100.5C 126.26,99.1802 120.926,98.5135 115.5,98.5C 121.419,62.5831 142.085,40.5831 177.5,32.5 Z"/></g>
<g><path style="opacity:0.923" fill="#000000" d="M 219.5,98.5 C 240.916,96.1862 260.25,101.353 277.5,114C 279.684,116.016 281.684,118.183 283.5,120.5C 279.833,124.833 275.833,128.833 271.5,132.5C 244.167,109.833 216.833,109.833 189.5,132.5C 184.616,128.802 180.782,124.468 178,119.5C 189.94,108.613 203.774,101.613 219.5,98.5 Z"/></g>
<g><path style="opacity:0.91" fill="#000000" d="M 222.5,131.5 C 237.25,129.346 249.916,133.346 260.5,143.5C 256.803,148.031 252.636,152.031 248,155.5C 236.346,146.17 224.68,146.17 213,155.5C 209.046,152.549 205.379,149.216 202,145.5C 201.333,144.5 201.333,143.5 202,142.5C 207.84,136.832 214.673,133.166 222.5,131.5 Z"/></g>
<g><path style="opacity:0.873" fill="#000000" d="M 226.5,164.5 C 238.834,164.014 242.167,169.18 236.5,180C 228.775,183.303 223.775,180.97 221.5,173C 222.123,169.546 223.789,166.713 226.5,164.5 Z"/></g>
<g><path style="opacity:0.931" fill="#000000" d="M 399.5,213.5 C 426.151,214.314 438.651,227.981 437,254.5C 430.692,274.245 417.192,282.745 396.5,280C 375.805,273.115 367.638,258.948 372,237.5C 376.685,224.258 385.852,216.258 399.5,213.5 Z M 399.5,231.5 C 397.058,232.899 394.724,234.566 392.5,236.5C 386.659,244.916 387.325,252.749 394.5,260C 405.212,265.781 413.379,263.281 419,252.5C 421.11,237.77 414.61,230.77 399.5,231.5 Z"/></g>
</svg>
