<?xml version="1.0" encoding="UTF-8"?>
<!DOCTYPE svg PUBLIC "-//W3C//DTD SVG 1.1//EN" "http://www.w3.org/Graphics/SVG/1.1/DTD/svg11.dtd">
<svg xmlns="http://www.w3.org/2000/svg" version="1.1" width="512px" height="512px" style="shape-rendering:geometricPrecision; text-rendering:geometricPrecision; image-rendering:optimizeQuality; fill-rule:evenodd; clip-rule:evenodd" xmlns:xlink="http://www.w3.org/1999/xlink">
<g><path style="opacity:0.995" fill="#000000" d="M 511.5,84.5 C 511.5,171.833 511.5,259.167 511.5,346.5C 505.014,372.485 488.681,388.652 462.5,395C 400.168,395.5 337.834,395.667 275.5,395.5C 275.5,408.833 275.5,422.167 275.5,435.5C 297.836,435.333 320.169,435.5 342.5,436C 353.752,441.343 357.919,450.176 355,462.5C 352.833,468.667 348.667,472.833 342.5,475C 284.5,475.667 226.5,475.667 168.5,475C 157.248,469.657 153.081,460.824 156,448.5C 158.167,442.333 162.333,438.167 168.5,436C 190.831,435.5 213.164,435.333 235.5,435.5C 235.5,422.167 235.5,408.833 235.5,395.5C 173.166,395.667 110.832,395.5 48.5,395C 22.3193,388.652 5.98594,372.485 -0.5,346.5C -0.5,259.167 -0.5,171.833 -0.5,84.5C 5.9821,58.5184 22.3154,42.3518 48.5,36C 186.5,35.3333 324.5,35.3333 462.5,36C 488.681,42.3479 505.014,58.5146 511.5,84.5 Z M 59.5,75.5 C 190.167,75.3333 320.834,75.5 451.5,76C 463.333,77.1667 469.833,83.6667 471,95.5C 471.667,175.5 471.667,255.5 471,335.5C 469.833,347.333 463.333,353.833 451.5,355C 320.833,355.667 190.167,355.667 59.5,355C 47.6667,353.833 41.1667,347.333 40,335.5C 39.3333,255.5 39.3333,175.5 40,95.5C 41.3448,83.6565 47.8448,76.9898 59.5,75.5 Z"/></g>
<g><path style="opacity:0.966" fill="#000000" d="M 268.5,115.5 C 288.65,113.483 297.483,122.483 295,142.5C 281.667,195.833 268.333,249.167 255,302.5C 249.657,313.752 240.824,317.919 228.5,315C 217.248,309.657 213.081,300.824 216,288.5C 229.333,235.167 242.667,181.833 256,128.5C 258.353,122.315 262.52,117.982 268.5,115.5 Z"/></g>
<g><path style="opacity:0.959" fill="#000000" d="M 168.5,155.5 C 188.65,153.483 197.483,162.483 195,182.5C 194.333,183.833 193.667,185.167 193,186.5C 184.016,196.318 174.849,205.985 165.5,215.5C 173.819,224.319 182.319,232.986 191,241.5C 197,250.833 197,260.167 191,269.5C 184.555,275.202 177.055,277.036 168.5,275C 166.004,273.92 163.67,272.586 161.5,271C 147.667,257.167 133.833,243.333 120,229.5C 114,220.167 114,210.833 120,201.5C 133.833,187.667 147.667,173.833 161.5,160C 163.898,158.476 166.231,156.976 168.5,155.5 Z"/></g>
<g><path style="opacity:0.959" fill="#000000" d="M 328.5,155.5 C 336.16,154.368 343.16,155.868 349.5,160C 363.333,173.833 377.167,187.667 391,201.5C 397,210.833 397,220.167 391,229.5C 377.167,243.333 363.333,257.167 349.5,271C 340.167,277 330.833,277 321.5,271C 314.933,262.948 313.767,254.115 318,244.5C 326.984,234.682 336.151,225.015 345.5,215.5C 337.181,206.681 328.681,198.014 320,189.5C 314,180.167 314,170.833 320,161.5C 322.736,159.248 325.569,157.248 328.5,155.5 Z"/></g>
</svg>
