<?xml version="1.0" encoding="UTF-8"?>
<!DOCTYPE svg PUBLIC "-//W3C//DTD SVG 1.1//EN" "http://www.w3.org/Graphics/SVG/1.1/DTD/svg11.dtd">
<svg xmlns="http://www.w3.org/2000/svg" version="1.1" width="512px" height="512px" style="shape-rendering:geometricPrecision; text-rendering:geometricPrecision; image-rendering:optimizeQuality; fill-rule:evenodd; clip-rule:evenodd" xmlns:xlink="http://www.w3.org/1999/xlink">
<g><path style="opacity:0.935" fill="#000000" d="M 511.5,388.5 C 511.5,393.833 511.5,399.167 511.5,404.5C 506.578,422.586 494.912,433.753 476.5,438C 438.833,438.667 401.167,438.667 363.5,438C 359.247,434.58 358.413,430.413 361,425.5C 362.419,424.54 363.919,423.707 365.5,423C 402.893,422.982 440.227,422.315 477.5,421C 491.113,415.098 496.446,405.098 493.5,391C 434.501,390.5 375.501,390.333 316.5,390.5C 316.306,402.853 310.306,410.686 298.5,414C 269.833,414.667 241.167,414.667 212.5,414C 200.694,410.686 194.694,402.853 194.5,390.5C 135.499,390.333 76.4991,390.5 17.5,391C 14.5191,406.662 20.8525,416.996 36.5,422C 136.167,422.333 235.833,422.667 335.5,423C 342.527,427.138 343.194,432.138 337.5,438C 236.5,438.667 135.5,438.667 34.5,438C 16.0883,433.753 4.42163,422.586 -0.5,404.5C -0.5,399.167 -0.5,393.833 -0.5,388.5C 5.58395,376.325 15.5839,371.325 29.5,373.5C 27.0912,368.773 25.5912,363.773 25,358.5C 24.3333,273.833 24.3333,189.167 25,104.5C 26.9437,88.2216 35.7771,77.7216 51.5,73C 187.5,72.3333 323.5,72.3333 459.5,73C 475.223,77.7216 484.056,88.2216 486,104.5C 486.667,189.167 486.667,273.833 486,358.5C 485.545,364.202 483.711,369.369 480.5,374C 494.796,371.123 505.129,375.956 511.5,388.5 Z M 54.5,88.5 C 188.5,88.3333 322.5,88.5 456.5,89C 464.3,91.8002 468.8,97.3002 470,105.5C 470.667,189.5 470.667,273.5 470,357.5C 468.59,366.576 463.423,372.076 454.5,374C 321.833,374.667 189.167,374.667 56.5,374C 47.5771,372.076 42.4105,366.576 41,357.5C 40.3333,273.167 40.3333,188.833 41,104.5C 42.8495,96.8255 47.3495,91.4922 54.5,88.5 Z M 160.5,123.5 C 252.167,123.333 343.834,123.5 435.5,124C 436.701,124.903 437.535,126.069 438,127.5C 438.667,196.833 438.667,266.167 438,335.5C 437.626,336.416 437.126,337.25 436.5,338C 344.501,338.5 252.501,338.667 160.5,338.5C 160.5,266.833 160.5,195.167 160.5,123.5 Z M 210.5,390.5 C 240.507,390.167 270.507,390.5 300.5,391.5C 300.139,394.692 298.472,396.859 295.5,398C 268.833,398.667 242.167,398.667 215.5,398C 212.292,396.563 210.625,394.063 210.5,390.5 Z"/></g>
<g><path style="opacity:0.935" fill="#000000" d="M 73.5,107.5 C 194.834,107.333 316.167,107.5 437.5,108C 444.737,109.568 449.904,113.734 453,120.5C 454.651,192.797 454.984,265.131 454,337.5C 452.691,346.14 447.858,351.64 439.5,354C 315.777,354.994 192.111,354.661 68.5,353C 61.8871,349.958 58.0538,344.791 57,337.5C 56.3333,285.833 56.3333,234.167 57,182.5C 57.985,178.334 60.6516,176.334 65,176.5C 68.2738,176.301 70.6071,177.634 72,180.5C 72.3333,232.167 72.6667,283.833 73,335.5C 73.3742,336.416 73.8742,337.25 74.5,338C 97.831,338.5 121.164,338.667 144.5,338.5C 144.5,266.833 144.5,195.167 144.5,123.5C 121.498,123.333 98.4976,123.5 75.5,124C 74.2986,124.903 73.4652,126.069 73,127.5C 72.6667,136.167 72.3333,144.833 72,153.5C 65.9935,159.33 60.9935,158.663 57,151.5C 56.1303,141.115 56.4636,130.782 58,120.5C 61.2659,113.721 66.4326,109.388 73.5,107.5 Z M 160.5,123.5 C 160.5,195.167 160.5,266.833 160.5,338.5C 252.501,338.667 344.501,338.5 436.5,338C 437.126,337.25 437.626,336.416 438,335.5C 438.667,266.167 438.667,196.833 438,127.5C 437.535,126.069 436.701,124.903 435.5,124C 343.834,123.5 252.167,123.333 160.5,123.5 Z"/></g>
<g><path style="opacity:0.906" fill="#000000" d="M 101.5,144.5 C 107.577,144.196 113.577,144.696 119.5,146C 122.803,149.795 123.303,153.962 121,158.5C 120.25,159.126 119.416,159.626 118.5,160C 111.833,160.667 105.167,160.667 98.5,160C 92.474,153.307 93.474,148.14 101.5,144.5 Z"/></g>
<g><path style="opacity:0.914" fill="#000000" d="M 184.5,144.5 C 194.233,144.109 203.9,144.609 213.5,146C 216.394,148.909 217.227,152.409 216,156.5C 215.5,158.333 214.333,159.5 212.5,160C 202.167,160.667 191.833,160.667 181.5,160C 177.788,157.487 176.622,153.987 178,149.5C 179.563,146.977 181.73,145.31 184.5,144.5 Z"/></g>
<g><path style="opacity:0.932" fill="#000000" d="M 243.5,144.5 C 298.168,144.333 352.834,144.5 407.5,145C 416.322,147.954 417.656,152.954 411.5,160C 354.167,160.667 296.833,160.667 239.5,160C 235.751,156.763 234.918,152.93 237,148.5C 238.792,146.372 240.958,145.039 243.5,144.5 Z"/></g>
<g><path style="opacity:0.892" fill="#000000" d="M 98.5,176.5 C 105.947,176.071 113.281,176.571 120.5,178C 122.429,181.256 122.929,184.756 122,188.5C 120.786,190.049 119.286,191.215 117.5,192C 110.751,192.877 104.084,192.544 97.5,191C 93.3778,185.888 93.7112,181.055 98.5,176.5 Z"/></g>
<g><path style="opacity:0.932" fill="#000000" d="M 181.5,176.5 C 243.168,176.333 304.834,176.5 366.5,177C 373.401,182.42 373.067,187.42 365.5,192C 304.833,192.667 244.167,192.667 183.5,192C 178.094,190.02 176.261,186.186 178,180.5C 179.376,179.295 180.542,177.962 181.5,176.5 Z"/></g>
<g><path style="opacity:0.894" fill="#000000" d="M 99.5,207.5 C 106.284,207.08 112.95,207.58 119.5,209C 123.715,213.958 123.381,218.625 118.5,223C 111.392,223.924 104.392,223.591 97.5,222C 93.1275,216.408 93.7942,211.575 99.5,207.5 Z"/></g>
<g><path style="opacity:0.91" fill="#000000" d="M 182.5,207.5 C 192.172,207.334 201.839,207.5 211.5,208C 216.224,210.435 217.724,214.269 216,219.5C 214.833,220.667 213.667,221.833 212.5,223C 202.5,223.667 192.5,223.667 182.5,223C 177.776,220.565 176.276,216.731 178,211.5C 179.397,209.93 180.897,208.596 182.5,207.5 Z"/></g>
<g><path style="opacity:0.902" fill="#000000" d="M 241.5,207.5 C 251.172,207.334 260.839,207.5 270.5,208C 274.861,210.226 276.361,213.726 275,218.5C 274.167,220.667 272.667,222.167 270.5,223C 260.5,223.667 250.5,223.667 240.5,223C 233.695,217.382 234.029,212.215 241.5,207.5 Z"/></g>
<g><path style="opacity:0.92" fill="#000000" d="M 293.5,207.5 C 317.836,207.333 342.169,207.5 366.5,208C 373.15,213.044 373.15,218.044 366.5,223C 342.167,223.667 317.833,223.667 293.5,223C 288.465,219.987 287.298,215.82 290,210.5C 291.145,209.364 292.312,208.364 293.5,207.5 Z"/></g>
<g><path style="opacity:0.901" fill="#000000" d="M 101.5,238.5 C 107.593,238.139 113.593,238.639 119.5,240C 122.902,243.719 123.402,247.886 121,252.5C 120.25,253.126 119.416,253.626 118.5,254C 111.833,254.667 105.167,254.667 98.5,254C 92.474,247.307 93.474,242.14 101.5,238.5 Z"/></g>
<g><path style="opacity:0.91" fill="#000000" d="M 183.5,238.5 C 193.58,238.077 203.58,238.577 213.5,240C 216.394,242.909 217.227,246.409 216,250.5C 215.5,252.333 214.333,253.5 212.5,254C 202.167,254.667 191.833,254.667 181.5,254C 178.634,252.607 177.301,250.274 177.5,247C 177.451,242.572 179.451,239.738 183.5,238.5 Z"/></g>
<g><path style="opacity:0.896" fill="#000000" d="M 98.5,270.5 C 105.947,270.071 113.281,270.571 120.5,272C 124.643,283.049 120.643,287.882 108.5,286.5C 104.224,286.821 100.224,285.988 96.5,284C 93.5325,278.971 94.1992,274.471 98.5,270.5 Z"/></g>
<g><path style="opacity:0.925" fill="#000000" d="M 181.5,270.5 C 207.502,270.333 233.502,270.5 259.5,271C 265.33,277.006 264.663,282.006 257.5,286C 232.833,286.667 208.167,286.667 183.5,286C 178.094,284.02 176.261,280.186 178,274.5C 179.376,273.295 180.542,271.962 181.5,270.5 Z"/></g>
<g><path style="opacity:0.913" fill="#000000" d="M 286.5,270.5 C 296.839,270.334 307.172,270.5 317.5,271C 319.333,271.5 320.5,272.667 321,274.5C 322.992,280.337 321.158,284.171 315.5,286C 305.426,286.923 295.426,286.59 285.5,285C 281.268,279.809 281.601,274.975 286.5,270.5 Z"/></g>
<g><path style="opacity:0.899" fill="#000000" d="M 99.5,301.5 C 106.284,301.08 112.95,301.58 119.5,303C 122.394,305.909 123.227,309.409 122,313.5C 120.786,315.049 119.286,316.215 117.5,317C 110.724,317.92 104.057,317.586 97.5,316C 93.1275,310.408 93.7942,305.575 99.5,301.5 Z"/></g>
<g><path style="opacity:0.931" fill="#000000" d="M 182.5,301.5 C 243.834,301.333 305.168,301.5 366.5,302C 371.299,305.071 372.465,309.238 370,314.5C 369.097,315.701 367.931,316.535 366.5,317C 305.167,317.667 243.833,317.667 182.5,317C 177.776,314.565 176.276,310.731 178,305.5C 179.397,303.93 180.897,302.596 182.5,301.5 Z"/></g>
</svg>
