<?xml version="1.0" encoding="UTF-8"?>
<!DOCTYPE svg PUBLIC "-//W3C//DTD SVG 1.1//EN" "http://www.w3.org/Graphics/SVG/1.1/DTD/svg11.dtd">
<svg xmlns="http://www.w3.org/2000/svg" version="1.1" width="512px" height="512px" style="shape-rendering:geometricPrecision; text-rendering:geometricPrecision; image-rendering:optimizeQuality; fill-rule:evenodd; clip-rule:evenodd" xmlns:xlink="http://www.w3.org/1999/xlink">
<g><path style="opacity:0.96" fill="#000000" d="M 511.5,105.5 C 511.5,200.833 511.5,296.167 511.5,391.5C 508.016,402.483 500.682,409.65 489.5,413C 474.536,414.543 459.536,414.876 444.5,414C 436.058,411.952 433.225,406.785 436,398.5C 437.167,396.667 438.667,395.167 440.5,394C 454.167,393.667 467.833,393.333 481.5,393C 487.333,392.5 490.5,389.333 491,383.5C 491.5,376.842 491.666,370.175 491.5,363.5C 334.167,363.5 176.833,363.5 19.5,363.5C 19.1367,371.571 19.6367,379.571 21,387.5C 22.7282,390.953 25.5615,392.786 29.5,393C 139.167,393.333 248.833,393.667 358.5,394C 364.542,397.748 366.042,402.915 363,409.5C 361.833,410.667 360.667,411.833 359.5,413C 341.214,414.433 322.88,414.933 304.5,414.5C 304.5,426.167 304.5,437.833 304.5,449.5C 332.556,453.722 348.223,469.889 351.5,498C 351.971,503.736 349.637,507.736 344.5,510C 285.167,510.667 225.833,510.667 166.5,510C 161.363,507.736 159.029,503.736 159.5,498C 162.783,469.883 178.45,453.716 206.5,449.5C 206.5,437.833 206.5,426.167 206.5,414.5C 147.166,414.667 87.8324,414.5 28.5,414C 13.8739,412.707 4.20724,405.207 -0.5,391.5C -0.5,296.167 -0.5,200.833 -0.5,105.5C 3.62216,92.8855 12.2888,85.3855 25.5,83C 70.837,82.8333 116.17,82.3333 161.5,81.5C 164.226,73.1099 169.226,66.4432 176.5,61.5C 174.28,52.2077 175.78,43.5411 181,35.5C 185.833,30.6667 190.667,25.8333 195.5,21C 203.683,15.6766 212.516,14.1766 222,16.5C 229.8,4.21725 240.966,-1.11609 255.5,0.5C 269.284,-1.30337 279.951,3.52996 287.5,15C 293.167,15.3333 298.833,15.6667 304.5,16C 308.538,16.8993 312.205,18.566 315.5,21C 320.333,25.8333 325.167,30.6667 330,35.5C 335.22,43.5411 336.72,52.2077 334.5,61.5C 341.774,66.4432 346.774,73.1099 349.5,81.5C 394.83,82.3333 440.163,82.8333 485.5,83C 498.711,85.3855 507.378,92.8855 511.5,105.5 Z M 246.5,21.5 C 253.284,21.0796 259.95,21.5796 266.5,23C 270.074,27.0969 271.907,31.9303 272,37.5C 278.909,44.2306 285.742,44.0639 292.5,37C 295.964,36.1834 299.298,36.5167 302.5,38C 306.702,41.8666 310.535,46.0332 314,50.5C 314.667,52.8333 314.667,55.1667 314,57.5C 311.608,60.228 309.608,63.228 308,66.5C 306.953,72.3717 309.12,76.5384 314.5,79C 321.559,78.3274 326.392,81.1607 329,87.5C 329.667,92.8333 329.667,98.1667 329,103.5C 328.214,106.583 326.381,108.749 323.5,110C 311.347,109.47 306.514,114.97 309,126.5C 310.667,128.833 312.333,131.167 314,133.5C 314.755,136.303 314.422,138.97 313,141.5C 308.801,146.034 304.301,150.201 299.5,154C 296.743,154.584 294.077,154.25 291.5,153C 284.67,145.51 278.17,145.677 272,153.5C 271.625,157.668 270.625,161.668 269,165.5C 267.2,167.317 265.034,168.484 262.5,169C 255.946,170.081 249.612,169.414 243.5,167C 242.299,166.097 241.465,164.931 241,163.5C 240.212,159.427 239.212,155.427 238,151.5C 233.785,147.38 228.951,146.547 223.5,149C 219.818,154.007 215.151,155.341 209.5,153C 204.966,148.801 200.799,144.301 197,139.5C 196.13,134.233 197.797,129.899 202,126.5C 204.51,119.362 202.344,114.196 195.5,111C 188.947,111.978 184.447,109.478 182,103.5C 181.13,97.0828 181.464,90.7494 183,84.5C 184.167,83.3333 185.333,82.1667 186.5,81C 204.003,79.1284 207.503,71.2951 197,57.5C 196.21,54.366 196.543,51.366 198,48.5C 201.867,44.2984 206.033,40.4651 210.5,37C 213.167,36.3333 215.833,36.3333 218.5,37C 225.258,44.0639 232.091,44.2306 239,37.5C 238.829,30.7311 241.329,25.3978 246.5,21.5 Z M 250.5,76.5 C 266.442,75.9428 274.276,83.6095 274,99.5C 271.233,108.64 265.066,113.64 255.5,114.5C 238.402,110.636 233.235,100.636 240,84.5C 242.975,80.9525 246.475,78.2858 250.5,76.5 Z M 27.5,103.5 C 71.8383,103.167 116.172,103.5 160.5,104.5C 162.258,114.918 167.591,122.918 176.5,128.5C 174.687,136.452 175.52,144.118 179,151.5C 185.344,161.515 193.844,169.015 204.5,174C 210.138,175.631 215.805,175.798 221.5,174.5C 225.345,179.508 230.012,183.674 235.5,187C 248.833,191.667 262.167,191.667 275.5,187C 280.988,183.674 285.655,179.508 289.5,174.5C 300.438,176.748 310.105,174.248 318.5,167C 326.361,160.761 331.861,152.928 335,143.5C 335.781,138.446 335.614,133.446 334.5,128.5C 343.409,122.918 348.742,114.918 350.5,104.5C 394.83,103.333 439.163,103.167 483.5,104C 488.228,105.396 490.728,108.562 491,113.5C 491.5,189.833 491.667,266.166 491.5,342.5C 334.167,342.5 176.833,342.5 19.5,342.5C 19.3333,266.166 19.5,189.833 20,113.5C 20.4713,108.542 22.9713,105.209 27.5,103.5 Z M 176.5,218.5 C 200.767,217.538 216.601,228.538 224,251.5C 226.982,270.24 220.815,285.073 205.5,296C 182.242,307.682 162.742,303.182 147,282.5C 135.731,259.611 140.231,240.444 160.5,225C 165.607,221.935 170.94,219.769 176.5,218.5 Z M 321.5,218.5 C 348.395,217.569 364.562,230.236 370,256.5C 370.182,280.99 358.349,296.157 334.5,302C 310.215,303.446 294.382,292.612 287,269.5C 284.474,242.881 295.974,225.881 321.5,218.5 Z M 227.5,414.5 C 246.167,414.5 264.833,414.5 283.5,414.5C 283.5,426.167 283.5,437.833 283.5,449.5C 264.833,449.5 246.167,449.5 227.5,449.5C 227.5,437.833 227.5,426.167 227.5,414.5 Z M 205.5,470.5 C 238.835,470.333 272.168,470.5 305.5,471C 316.365,472.93 324.032,478.93 328.5,489C 279.833,489.667 231.167,489.667 182.5,489C 187.198,479.003 194.865,472.836 205.5,470.5 Z"/></g>
<g><path style="opacity:0.943" fill="#000000" d="M 247.5,55.5 C 270.635,53.166 286.135,62.8327 294,84.5C 298.307,109.063 288.807,125.563 265.5,134C 241.828,137.917 225.662,128.751 217,106.5C 212.481,80.5538 222.648,63.5538 247.5,55.5 Z M 250.5,76.5 C 246.475,78.2858 242.975,80.9525 240,84.5C 233.235,100.636 238.402,110.636 255.5,114.5C 265.066,113.64 271.233,108.64 274,99.5C 274.276,83.6095 266.442,75.9428 250.5,76.5 Z"/></g>
<g><path style="opacity:0.944" fill="#000000" d="M 174.5,197.5 C 207.536,195.76 230.369,210.093 243,240.5C 251.421,277.488 238.588,303.988 204.5,320C 167.584,329.619 140.75,317.453 124,283.5C 114.343,252.807 122.177,227.641 147.5,208C 155.942,202.768 164.942,199.268 174.5,197.5 Z M 176.5,218.5 C 170.94,219.769 165.607,221.935 160.5,225C 140.231,240.444 135.731,259.611 147,282.5C 162.742,303.182 182.242,307.682 205.5,296C 220.815,285.073 226.982,270.24 224,251.5C 216.601,228.538 200.767,217.538 176.5,218.5 Z"/></g>
<g><path style="opacity:0.943" fill="#000000" d="M 319.5,197.5 C 355.927,196.112 379.427,212.779 390,247.5C 394.728,280.549 382.228,304.383 352.5,319C 319.949,329.704 293.782,321.204 274,293.5C 265.553,278.088 263.219,261.754 267,244.5C 275.303,218.355 292.803,202.688 319.5,197.5 Z M 321.5,218.5 C 295.974,225.881 284.474,242.881 287,269.5C 294.382,292.612 310.215,303.446 334.5,302C 358.349,296.157 370.182,280.99 370,256.5C 364.562,230.236 348.395,217.569 321.5,218.5 Z"/></g>
<g><path style="opacity:0.935" fill="#000000" d="M 311.5,236.5 C 318.204,236.771 323.371,239.771 327,245.5C 330.273,240.883 334.606,237.883 340,236.5C 349.559,238.615 352.559,244.282 349,253.5C 346.65,255.683 344.483,258.016 342.5,260.5C 344.483,262.984 346.65,265.317 349,267.5C 352.559,276.718 349.559,282.385 340,284.5C 334.628,283.148 330.295,280.148 327,275.5C 324.079,279.092 320.579,281.925 316.5,284C 305.937,284.766 301.77,279.933 304,269.5C 306.312,266.354 308.812,263.354 311.5,260.5C 308.812,257.646 306.312,254.646 304,251.5C 302.008,244.049 304.508,239.049 311.5,236.5 Z"/></g>
<g><path style="opacity:0.926" fill="#000000" d="M 194.5,237.5 C 203.331,238.157 207.164,242.824 206,251.5C 200.248,260.672 194.248,269.672 188,278.5C 182.965,283.232 177.465,283.732 171.5,280C 166.952,275.152 162.119,270.652 157,266.5C 153.428,257.309 156.428,251.642 166,249.5C 170.276,250.47 173.943,252.47 177,255.5C 180.477,251.889 183.477,247.889 186,243.5C 188.322,240.605 191.155,238.605 194.5,237.5 Z"/></g>
<g><path style="opacity:0.897" fill="#000000" d="M 395.5,393.5 C 404.125,391.634 409.125,394.967 410.5,403.5C 409.125,412.195 404.125,415.362 395.5,413C 389.975,410.081 388.142,405.581 390,399.5C 391.36,396.977 393.193,394.977 395.5,393.5 Z"/></g>
</svg>
