<?xml version="1.0" encoding="UTF-8"?>
<!DOCTYPE svg PUBLIC "-//W3C//DTD SVG 1.1//EN" "http://www.w3.org/Graphics/SVG/1.1/DTD/svg11.dtd">
<svg xmlns="http://www.w3.org/2000/svg" version="1.1" width="512px" height="512px" style="shape-rendering:geometricPrecision; text-rendering:geometricPrecision; image-rendering:optimizeQuality; fill-rule:evenodd; clip-rule:evenodd" xmlns:xlink="http://www.w3.org/1999/xlink">
<g><path style="opacity:0.985" fill="#000000" d="M -0.5,30.5 C 34.8333,30.5 70.1667,30.5 105.5,30.5C 105.5,35.5 105.5,40.5 105.5,45.5C 75.1667,45.5 44.8333,45.5 14.5,45.5C 14.5,50.5 14.5,55.5 14.5,60.5C 175.167,60.5 335.833,60.5 496.5,60.5C 496.5,55.5 496.5,50.5 496.5,45.5C 371.167,45.5 245.833,45.5 120.5,45.5C 120.5,40.5 120.5,35.5 120.5,30.5C 250.833,30.5 381.167,30.5 511.5,30.5C 511.5,140.5 511.5,250.5 511.5,360.5C 443.833,360.5 376.167,360.5 308.5,360.5C 308.5,385.5 308.5,410.5 308.5,435.5C 330.536,430.991 347.036,438.325 358,457.5C 360.199,464.997 361.032,472.663 360.5,480.5C 290.5,480.5 220.5,480.5 150.5,480.5C 148.265,457.783 157.932,442.95 179.5,436C 187.159,435.5 194.826,435.334 202.5,435.5C 202.5,425.167 202.5,414.833 202.5,404.5C 207.833,404.5 213.167,404.5 218.5,404.5C 218.5,414.833 218.5,425.167 218.5,435.5C 243.167,435.5 267.833,435.5 292.5,435.5C 292.5,410.5 292.5,385.5 292.5,360.5C 267.833,360.5 243.167,360.5 218.5,360.5C 218.5,370.5 218.5,380.5 218.5,390.5C 213.167,390.5 207.833,390.5 202.5,390.5C 202.5,380.5 202.5,370.5 202.5,360.5C 134.833,360.5 67.1667,360.5 -0.5,360.5C -0.5,250.5 -0.5,140.5 -0.5,30.5 Z M 14.5,75.5 C 175.167,75.5 335.833,75.5 496.5,75.5C 496.5,150.167 496.5,224.833 496.5,299.5C 481.167,299.5 465.833,299.5 450.5,299.5C 450.5,304.833 450.5,310.167 450.5,315.5C 465.833,315.5 481.167,315.5 496.5,315.5C 496.5,325.5 496.5,335.5 496.5,345.5C 335.833,345.5 175.167,345.5 14.5,345.5C 14.5,335.5 14.5,325.5 14.5,315.5C 144.833,315.5 275.167,315.5 405.5,315.5C 405.5,310.167 405.5,304.833 405.5,299.5C 275.167,299.5 144.833,299.5 14.5,299.5C 14.5,224.833 14.5,150.167 14.5,75.5 Z M 188.5,450.5 C 233.168,450.333 277.835,450.5 322.5,451C 332.339,451.419 339.339,456.086 343.5,465C 284.833,465.667 226.167,465.667 167.5,465C 171.874,456.162 178.874,451.328 188.5,450.5 Z"/></g>
<g><path style="opacity:0.883" fill="#000000" d="M 30.5,89.5 C 35.5111,89.3341 40.5111,89.5007 45.5,90C 46.4714,95.0717 46.8047,100.238 46.5,105.5C 41.1667,105.5 35.8333,105.5 30.5,105.5C 30.5,100.167 30.5,94.8333 30.5,89.5 Z"/></g>
<g><path style="opacity:0.883" fill="#000000" d="M 60.5,89.5 C 65.5111,89.3341 70.5111,89.5007 75.5,90C 76.4714,95.0717 76.8047,100.238 76.5,105.5C 71.1667,105.5 65.8333,105.5 60.5,105.5C 60.5,100.167 60.5,94.8333 60.5,89.5 Z"/></g>
<g><path style="opacity:0.898" fill="#000000" d="M 159.5,137.5 C 163.737,140.228 167.571,143.561 171,147.5C 171.667,148.5 171.667,149.5 171,150.5C 158.319,163.014 145.819,175.681 133.5,188.5C 145.819,201.319 158.319,213.986 171,226.5C 171.667,227.5 171.667,228.5 171,229.5C 167.667,232.833 164.333,236.167 161,239.5C 143.833,222.333 126.667,205.167 109.5,188C 126.368,171.299 143.035,154.465 159.5,137.5 Z"/></g>
<g><path style="opacity:0.898" fill="#000000" d="M 349.5,137.5 C 367.248,153.746 384.582,170.579 401.5,188C 384.333,205.167 367.167,222.333 350,239.5C 346.667,236.167 343.333,232.833 340,229.5C 339.333,228.5 339.333,227.5 340,226.5C 352.681,213.986 365.181,201.319 377.5,188.5C 365.181,175.681 352.681,163.014 340,150.5C 339.333,149.5 339.333,148.5 340,147.5C 343.371,144.297 346.538,140.964 349.5,137.5 Z"/></g>
<g><path style="opacity:0.912" fill="#000000" d="M 311.5,139.5 C 317.537,139.171 323.537,139.504 329.5,140.5C 314.93,173.635 300.93,206.969 287.5,240.5C 281.463,240.829 275.463,240.496 269.5,239.5C 284.07,206.365 298.07,173.031 311.5,139.5 Z"/></g>
<g><path style="opacity:0.926" fill="#000000" d="M 187.5,224.5 C 210.167,224.5 232.833,224.5 255.5,224.5C 255.5,229.833 255.5,235.167 255.5,240.5C 232.833,240.5 210.167,240.5 187.5,240.5C 187.5,235.167 187.5,229.833 187.5,224.5 Z"/></g>
<g><path style="opacity:0.938" fill="#000000" d="M 420.5,299.5 C 425.5,299.5 430.5,299.5 435.5,299.5C 435.5,304.833 435.5,310.167 435.5,315.5C 430.5,315.5 425.5,315.5 420.5,315.5C 420.5,310.167 420.5,304.833 420.5,299.5 Z"/></g>
<g><path style="opacity:0.924" fill="#000000" d="M 248.5,375.5 C 271.103,373.933 280.603,384.266 277,406.5C 270.261,419.644 259.761,423.81 245.5,419C 234.032,412.22 230.199,402.386 234,389.5C 236.774,382.557 241.607,377.89 248.5,375.5 Z M 252.5,391.5 C 261.523,391.062 264.189,394.895 260.5,403C 252.59,406.31 248.756,403.81 249,395.5C 249.69,393.65 250.856,392.316 252.5,391.5 Z"/></g>
</svg>
