<?xml version="1.0" encoding="UTF-8"?>
<!DOCTYPE svg PUBLIC "-//W3C//DTD SVG 1.1//EN" "http://www.w3.org/Graphics/SVG/1.1/DTD/svg11.dtd">
<svg xmlns="http://www.w3.org/2000/svg" version="1.1" width="512px" height="512px" style="shape-rendering:geometricPrecision; text-rendering:geometricPrecision; image-rendering:optimizeQuality; fill-rule:evenodd; clip-rule:evenodd" xmlns:xlink="http://www.w3.org/1999/xlink">
<g><path style="opacity:0.975" fill="#000000" d="M 113.5,-0.5 C 118.167,-0.5 122.833,-0.5 127.5,-0.5C 143.048,7.72713 146.881,19.7271 139,35.5C 136.244,38.9267 132.91,41.5934 129,43.5C 128.502,46.8168 128.335,50.1501 128.5,53.5C 151.836,53.3334 175.169,53.5 198.5,54C 200.333,54.5 201.5,55.6667 202,57.5C 202.5,66.1603 202.666,74.8269 202.5,83.5C 217.5,83.5 232.5,83.5 247.5,83.5C 247.667,70.1625 247.5,56.8292 247,43.5C 234.51,37.1761 230.177,27.1761 234,13.5C 236.774,6.55693 241.607,1.89027 248.5,-0.5C 253.167,-0.5 257.833,-0.5 262.5,-0.5C 277.834,6.99255 282,18.6592 275,34.5C 272.112,38.4451 268.445,41.4451 264,43.5C 263.5,56.8292 263.333,70.1625 263.5,83.5C 278.5,83.5 293.5,83.5 308.5,83.5C 308.334,74.8269 308.5,66.1603 309,57.5C 309.5,55.6667 310.667,54.5 312.5,54C 335.831,53.5 359.164,53.3334 382.5,53.5C 382.665,50.1501 382.498,46.8168 382,43.5C 367.743,34.9556 364.409,23.2889 372,8.5C 375.161,4.49052 378.994,1.49052 383.5,-0.5C 388.167,-0.5 392.833,-0.5 397.5,-0.5C 412.64,6.39521 417.14,17.7285 411,33.5C 408.252,38.0813 404.419,41.4146 399.5,43.5C 398.669,50.4764 398.169,57.4764 398,64.5C 397.626,65.4162 397.126,66.2496 396.5,67C 372.59,68.4801 348.59,68.9801 324.5,68.5C 324.5,73.5 324.5,78.5 324.5,83.5C 334.839,83.3335 345.172,83.5002 355.5,84C 360.743,88.5884 360.743,93.2551 355.5,98C 345.172,98.4998 334.839,98.6665 324.5,98.5C 324.5,103.5 324.5,108.5 324.5,113.5C 375.834,113.333 427.168,113.5 478.5,114C 479.333,114.833 480.167,115.667 481,116.5C 481.667,206.167 481.667,295.833 481,385.5C 480.167,386.333 479.333,387.167 478.5,388C 329.833,388.667 181.167,388.667 32.5,388C 31.6667,387.167 30.8333,386.333 30,385.5C 29.3333,372.833 29.3333,360.167 30,347.5C 31.3929,344.634 33.7262,343.301 37,343.5C 40.2738,343.301 42.6071,344.634 44,347.5C 44.4998,356.16 44.6664,364.827 44.5,373.5C 185.167,373.5 325.833,373.5 466.5,373.5C 466.5,291.833 466.5,210.167 466.5,128.5C 419.167,128.5 371.833,128.5 324.5,128.5C 324.333,141.837 324.5,155.171 325,168.5C 335.879,173.69 346.713,179.023 357.5,184.5C 358.333,185.5 359.167,186.5 360,187.5C 360.667,230.5 360.667,273.5 360,316.5C 354.112,321.201 347.612,325.034 340.5,328C 331.783,328.949 328.283,325.116 330,316.5C 334.043,313.193 338.543,310.526 343.5,308.5C 344.667,273.505 344.833,238.505 344,203.5C 317.42,216.692 290.753,229.692 264,242.5C 263.333,277.167 263.333,311.833 264,346.5C 278.09,339.538 292.257,332.705 306.5,326C 315.708,324.869 319.208,328.702 317,337.5C 315.833,338.667 314.667,339.833 313.5,341C 294.265,350.119 274.932,358.952 255.5,367.5C 221.279,352.057 187.279,336.057 153.5,319.5C 152.667,318.5 151.833,317.5 151,316.5C 150.333,273.5 150.333,230.5 151,187.5C 151.833,186.5 152.667,185.5 153.5,184.5C 164.287,179.023 175.121,173.69 186,168.5C 186.5,155.171 186.667,141.837 186.5,128.5C 139.167,128.5 91.8333,128.5 44.5,128.5C 44.6667,193.501 44.5,258.501 44,323.5C 39.3333,328.833 34.6667,328.833 30,323.5C 29.3333,254.5 29.3333,185.5 30,116.5C 30.8333,115.667 31.6667,114.833 32.5,114C 83.8323,113.5 135.166,113.333 186.5,113.5C 186.5,108.5 186.5,103.5 186.5,98.5C 131.832,98.3333 77.1657,98.5 22.5,99C 18,99.5 15.5,102 15,106.5C 14.3333,202.833 14.3333,299.167 15,395.5C 15.5,400 18,402.5 22.5,403C 177.833,403.667 333.167,403.667 488.5,403C 493,402.5 495.5,400 496,395.5C 496.993,298.11 496.66,200.777 495,103.5C 493.661,100.906 491.494,99.4057 488.5,99C 452.167,98.6667 415.833,98.3333 379.5,98C 374.177,93.2862 374.177,88.6195 379.5,84C 418.167,83.3333 456.833,83.3333 495.5,84C 503.35,86.685 508.684,91.8517 511.5,99.5C 511.5,200.5 511.5,301.5 511.5,402.5C 508.684,410.148 503.35,415.315 495.5,418C 439.168,418.5 382.834,418.667 326.5,418.5C 329.177,437.02 337.511,452.52 351.5,465C 364.739,466.297 378.072,466.964 391.5,467C 403.771,472.033 408.938,481.2 407,494.5C 404.717,502.944 399.55,508.611 391.5,511.5C 300.833,511.5 210.167,511.5 119.5,511.5C 102.733,502.681 99.2329,490.014 109,473.5C 111.99,470.509 115.49,468.343 119.5,467C 132.928,466.964 146.261,466.297 159.5,465C 173.692,452.643 182.026,437.143 184.5,418.5C 128.166,418.667 71.8323,418.5 15.5,418C 7.64982,415.315 2.31649,410.148 -0.5,402.5C -0.5,301.5 -0.5,200.5 -0.5,99.5C 2.31649,91.8517 7.64982,86.685 15.5,84C 72.499,83.5 129.499,83.3333 186.5,83.5C 186.5,78.5 186.5,73.5 186.5,68.5C 162.41,68.9801 138.41,68.4801 114.5,67C 113.874,66.2496 113.374,65.4162 113,64.5C 112.831,57.4764 112.331,50.4764 111.5,43.5C 97.0398,35.2768 93.5398,23.6101 101,8.5C 104.299,4.1179 108.466,1.1179 113.5,-0.5 Z M 116.5,15.5 C 122.308,14.1545 125.974,16.3211 127.5,22C 124.552,29.1357 120.052,30.3024 114,25.5C 112.861,21.5789 113.695,18.2456 116.5,15.5 Z M 252.5,15.5 C 261.523,15.0616 264.189,18.8949 260.5,27C 252.59,30.3099 248.756,27.8099 249,19.5C 249.69,17.6498 250.856,16.3164 252.5,15.5 Z M 387.5,15.5 C 397.818,15.3224 400.151,19.489 394.5,28C 388.694,29.8527 385.028,27.8527 383.5,22C 384.234,19.4393 385.567,17.2726 387.5,15.5 Z M 202.5,98.5 C 217.5,98.5 232.5,98.5 247.5,98.5C 247.5,103.5 247.5,108.5 247.5,113.5C 232.5,113.5 217.5,113.5 202.5,113.5C 202.5,108.5 202.5,103.5 202.5,98.5 Z M 263.5,98.5 C 278.5,98.5 293.5,98.5 308.5,98.5C 308.5,103.5 308.5,108.5 308.5,113.5C 293.5,113.5 278.5,113.5 263.5,113.5C 263.5,108.5 263.5,103.5 263.5,98.5 Z M 202.5,128.5 C 217.5,128.5 232.5,128.5 247.5,128.5C 247.793,132.437 247.46,136.27 246.5,140C 232.167,146.833 217.833,153.667 203.5,160.5C 202.501,149.854 202.168,139.187 202.5,128.5 Z M 263.5,128.5 C 278.5,128.5 293.5,128.5 308.5,128.5C 308.832,139.187 308.499,149.854 307.5,160.5C 293.167,153.667 278.833,146.833 264.5,140C 263.54,136.27 263.207,132.437 263.5,128.5 Z M 254.5,153.5 C 281.054,165.443 307.387,177.943 333.5,191C 308.378,202.727 283.378,214.727 258.5,227C 255.743,227.584 253.077,227.25 250.5,226C 226.288,214.061 201.955,202.394 177.5,191C 203.258,178.453 228.925,165.953 254.5,153.5 Z M 166.5,203.5 C 193.451,216.209 220.284,229.209 247,242.5C 247.667,277.167 247.667,311.833 247,346.5C 220.576,333.705 194.076,321.038 167.5,308.5C 166.5,273.506 166.167,238.506 166.5,203.5 Z M 200.5,418.5 C 237.167,418.5 273.833,418.5 310.5,418.5C 311.947,436.182 318.281,451.849 329.5,465.5C 280.167,466.833 230.833,466.833 181.5,465.5C 192.718,451.853 199.052,436.186 200.5,418.5 Z M 126.5,481.5 C 212.501,481.333 298.501,481.5 384.5,482C 391.036,483.572 392.869,487.405 390,493.5C 388.352,494.717 386.519,495.55 384.5,496C 298.5,496.667 212.5,496.667 126.5,496C 119.964,494.428 118.131,490.595 121,484.5C 122.876,483.391 124.709,482.391 126.5,481.5 Z"/></g>
</svg>
