<svg version="1.1" id="Layer_1" xmlns="http://www.w3.org/2000/svg" xmlns:xlink="http://www.w3.org/1999/xlink" x="0px" y="0px"
	 width="100%" viewBox="0 0 512 512" enable-background="new 0 0 512 512" xml:space="preserve">
<path fill="#000000" opacity="1.000000" stroke="none" 
	d="
M291.531342,1.000000 
	C295.655823,4.163143 300.344635,2.846532 304.434326,3.381722 
	C329.486267,6.660096 353.882233,12.524129 377.838837,20.415495 
	C390.137604,24.466740 402.060791,29.452703 413.970062,34.505260 
	C418.398895,36.384212 420.376465,39.288269 420.371277,44.047535 
	C420.318085,92.685120 420.812500,141.329498 420.128082,189.957535 
	C419.795074,213.616730 413.897064,236.467087 404.720978,258.364532 
	C395.524780,280.309967 382.854431,299.931030 366.718079,317.497986 
	C353.822418,331.536987 338.784973,342.867188 323.619385,354.135712 
	C322.822571,354.727722 321.966583,355.241669 321.183868,355.850739 
	C320.419098,356.445892 319.712982,357.116364 317.945160,358.655945 
	C322.265503,358.655945 325.359558,358.655914 328.453644,358.655945 
	C372.760529,358.656433 417.067444,358.649719 461.374329,358.661255 
	C477.580658,358.665497 488.326294,369.310059 488.333710,385.363770 
	C488.349304,419.010345 488.222687,452.657593 488.411713,486.303131 
	C488.477631,498.041534 483.646423,506.344818 473.127655,511.425354 
	C472.536102,511.711121 472.022797,512.158936 471.236542,512.765625 
	C328.645782,513.000000 186.291550,513.000000 43.468662,513.000000 
	C40.815048,511.508270 38.480835,510.192810 36.472702,508.492310 
	C30.103182,503.098419 26.482361,496.613770 26.550470,487.784668 
	C26.816525,453.294403 26.980091,418.796478 26.497005,384.311005 
	C26.321114,371.754883 37.251839,358.543915 52.553551,358.593811 
	C97.876259,358.741547 143.199753,358.651031 188.522934,358.653656 
	C190.504837,358.653778 192.486725,358.653687 195.363739,358.653687 
	C192.509277,354.174377 188.516922,352.124084 185.114899,349.624573 
	C173.462875,341.063690 161.958130,332.341919 151.892349,321.910431 
	C134.305191,303.684204 120.550858,282.893555 110.649734,259.570984 
	C102.433556,240.217377 97.178436,220.157639 95.428391,199.129837 
	C95.028252,194.322052 94.689560,189.539948 94.685852,184.737244 
	C94.650085,138.414307 94.753334,92.090942 94.552963,45.768841 
	C94.526855,39.732361 96.584892,36.163357 102.075867,33.806561 
	C128.985413,22.256624 156.565109,12.939314 185.428741,7.584333 
	C196.832199,5.468685 208.216217,3.352669 219.797012,2.471558 
	C220.394287,2.426114 220.954391,1.892280 221.765900,1.292915 
	C245.020889,1.000000 268.041779,1.000000 291.531342,1.000000 
M469.654144,405.500092 
	C469.653290,400.002747 469.657013,394.505402 469.650574,389.008057 
	C469.639313,379.344086 467.647034,377.343384 457.930878,377.343048 
	C408.618500,377.341400 359.301178,377.729248 309.997223,377.087921 
	C297.824432,376.929535 287.492889,378.944611 278.781128,387.534393 
	C278.308563,388.000305 277.757050,388.385101 277.257446,388.824860 
	C265.745392,398.957733 248.941422,399.266998 237.752151,389.142242 
	C234.077179,385.816956 229.850296,383.105225 225.911819,380.066254 
	C223.309341,378.058228 220.487930,377.295685 217.136795,377.300812 
	C163.326447,377.383057 109.515915,377.348267 55.705429,377.352203 
	C47.658077,377.352783 45.357548,379.665802 45.354931,387.737274 
	C45.344456,420.056885 45.346546,452.376526 45.351814,484.696136 
	C45.353119,492.700958 47.315750,494.646606 55.387630,494.646881 
	C189.997162,494.651184 324.606689,494.652710 459.216217,494.651550 
	C467.623779,494.651459 469.639465,492.602142 469.644714,483.967224 
	C469.660370,458.144836 469.652649,432.322479 469.654144,405.500092 
M291.739166,354.181915 
	C297.841797,349.611725 304.003143,345.117523 310.035461,340.456329 
	C324.696594,329.127777 339.798737,318.468292 352.439484,304.567139 
	C367.499634,288.005310 379.391541,269.690155 387.895325,249.110153 
	C396.141235,229.154144 401.177307,208.269073 401.470978,186.750122 
	C402.069000,142.931946 401.565460,99.099472 401.779327,55.274178 
	C401.800690,50.888203 399.999298,49.131710 396.481171,47.698322 
	C374.480621,38.734676 351.887665,31.768265 328.629639,26.871151 
	C310.615295,23.078129 292.414978,20.351812 274.082336,19.547827 
	C245.826385,18.308645 217.780075,20.512367 189.947556,26.214226 
	C165.489685,31.224739 141.779221,38.330853 118.612709,47.524090 
	C114.532372,49.143299 113.239716,51.319424 113.255905,55.639969 
	C113.413246,97.632683 113.449303,139.626633 113.272682,181.619202 
	C113.233360,190.967148 113.989288,200.248001 115.603096,209.342178 
	C120.081398,234.578461 128.848846,258.266357 143.071472,279.771851 
	C153.946655,296.215851 166.444153,311.213623 182.246613,323.170807 
	C204.981506,340.373535 227.824280,357.433746 250.638596,374.531311 
	C256.397522,378.847260 258.246582,378.832153 263.893127,374.695862 
	C273.000366,368.024384 282.103119,361.346771 291.739166,354.181915 
z"/>
<path fill="#000000" opacity="1.000000" stroke="none" 
	d="
M135.220779,461.994812 
	C136.475006,463.973969 138.043747,465.421143 138.241837,467.488190 
	C138.651749,471.766052 138.553345,476.057129 134.048462,478.297516 
	C129.750137,480.435242 125.391235,479.975922 122.258965,476.217560 
	C117.171288,470.113037 112.492828,463.667725 107.630150,457.375122 
	C106.523041,455.942474 105.368935,454.546082 103.725067,452.494965 
	C97.966179,460.189301 92.471901,467.555450 86.949699,474.900574 
	C82.026695,481.448700 73.395676,481.011902 69.702896,474.133331 
	C67.516449,470.060608 69.246864,466.609772 71.426491,463.462006 
	C75.195503,458.018951 79.337120,452.834900 83.274338,447.506653 
	C84.426895,445.946899 85.416702,444.266907 86.839455,442.094940 
	C80.527748,440.375519 74.833717,438.876770 69.171867,437.264984 
	C64.862808,436.038300 60.976280,434.274658 60.688583,428.920105 
	C60.241974,420.607880 65.447769,416.858734 74.723175,418.982666 
	C79.559258,420.090057 84.438660,421.179962 89.098038,422.840332 
	C94.049217,424.604706 94.862701,422.516571 94.702347,418.241852 
	C94.496567,412.756744 94.601791,407.257019 94.678696,401.765076 
	C94.748650,396.769409 97.515938,393.569580 102.247330,392.789246 
	C106.806305,392.037354 111.263802,394.687897 112.581146,399.336853 
	C114.286583,405.355408 113.121353,411.563812 113.311043,417.683563 
	C113.510094,424.105133 113.354332,423.986145 119.352394,422.555115 
	C125.772789,421.023315 131.989410,418.396912 138.771255,418.669373 
	C143.734039,418.868713 146.400726,421.229828 147.247467,426.132538 
	C148.041534,430.730225 145.806808,435.036377 141.361572,436.370270 
	C134.726974,438.361115 127.973236,439.954926 120.303642,441.971863 
	C125.416183,448.845215 130.199524,455.275970 135.220779,461.994812 
z"/>
<path fill="#000000" opacity="1.000000" stroke="none" 
	d="
M291.497009,422.257080 
	C292.700165,422.545135 293.595703,422.507446 294.331757,422.831726 
	C298.959930,424.870850 299.812744,422.583527 299.690521,418.527374 
	C299.520020,412.870087 299.591034,407.202606 299.677063,401.541321 
	C299.757751,396.234070 302.191833,393.528564 307.327087,392.769836 
	C311.254089,392.189606 315.756348,394.868774 317.177734,398.785400 
	C319.406647,404.927032 318.079559,411.320587 318.300598,417.596924 
	C318.530487,424.124329 318.351990,424.048431 324.727417,422.455566 
	C330.662933,420.972595 336.438995,418.668518 342.682739,418.664032 
	C347.761505,418.660370 351.031921,421.134094 352.134003,425.714783 
	C353.097198,429.718140 350.867035,434.579590 346.479309,436.085358 
	C339.928619,438.333374 333.145264,439.903351 326.412720,441.775146 
	C325.789368,443.690765 327.123383,444.808472 328.113312,446.103790 
	C332.242096,451.506104 336.442596,456.858643 340.404510,462.381714 
	C343.242950,466.338654 344.732422,470.736206 342.123230,475.428070 
	C340.037201,479.179230 336.378052,479.526154 332.560699,479.335571 
	C330.070221,479.211212 328.192627,478.196198 326.689667,476.154938 
	C321.679688,469.350861 316.568726,462.621216 311.507751,455.854584 
	C309.674957,453.404053 308.239899,452.445068 305.926605,455.761810 
	C301.280457,462.423279 296.178955,468.766998 291.271484,475.246460 
	C288.014252,479.546936 281.247955,480.821320 277.096436,477.905762 
	C273.180206,475.155457 272.334778,469.228485 275.621552,464.512909 
	C280.348816,457.730621 285.379211,451.159363 290.296783,444.510315 
	C290.789459,443.844208 291.422333,443.272980 291.008087,441.837006 
	C285.568359,440.403595 279.867462,438.877319 274.153351,437.401917 
	C267.480957,435.679077 264.524658,431.346375 265.770050,425.031799 
	C266.752838,420.048798 271.575775,417.503174 278.102692,418.827789 
	C282.481293,419.716370 286.780792,420.994720 291.497009,422.257080 
z"/>
<path fill="#000000" opacity="1.000000" stroke="none" 
	d="
M176.489212,418.902924 
	C181.893753,420.248962 186.970779,421.197021 191.830795,422.802124 
	C196.103470,424.213196 196.748413,422.376770 196.680008,418.817474 
	C196.574402,413.324524 196.517792,407.820557 196.747040,402.334106 
	C196.974915,396.880646 199.569733,393.901917 204.623642,392.921600 
	C208.851654,392.101471 212.012482,393.771973 214.353729,397.356415 
	C215.666412,399.366150 215.299088,401.524475 215.325287,403.646362 
	C215.393127,409.140991 215.380997,414.637054 215.349274,420.132263 
	C215.332687,423.008209 216.215698,423.810883 219.316376,423.046478 
	C226.212372,421.346436 232.936035,418.651733 240.186401,418.673340 
	C245.623764,418.689514 248.421127,420.810486 249.239685,425.332153 
	C250.253708,430.933563 248.136230,434.915100 242.780487,436.516541 
	C236.444275,438.411194 229.996796,439.933685 223.079697,441.753784 
	C226.665955,448.127502 231.543854,453.295288 235.492416,459.097839 
	C236.890045,461.151672 238.390869,463.161743 239.544556,465.349915 
	C242.425980,470.815094 241.365967,475.048431 236.517029,478.298340 
	C232.836868,480.764862 226.770874,479.564423 223.597412,475.442017 
	C218.138779,468.351105 212.861755,461.120422 207.494217,453.959137 
	C207.209076,453.578674 206.791397,453.297546 205.961258,452.534180 
	C200.707062,459.467682 195.539490,466.297729 190.356079,473.115662 
	C189.555023,474.169281 188.763977,475.251343 187.826630,476.176758 
	C184.042007,479.913116 178.351822,480.494110 174.700119,477.586060 
	C171.184998,474.786743 170.314850,468.694427 173.238846,464.469360 
	C177.478470,458.343262 181.993896,452.406555 186.454651,446.436096 
	C187.454453,445.097870 188.442673,443.814423 188.884384,441.681519 
	C182.884842,440.191437 176.967133,438.840027 171.120728,437.229797 
	C166.932266,436.076141 163.498550,433.955597 162.778610,429.078949 
	C162.157715,424.873260 164.305206,422.068939 167.362457,419.765381 
	C170.021469,417.761871 173.135406,418.878510 176.489212,418.902924 
z"/>
<path fill="#000000" opacity="1.000000" stroke="none" 
	d="
M368.255981,431.121582 
	C366.837677,420.855927 371.623779,416.716400 381.835144,419.000153 
	C387.167938,420.192810 392.501251,421.447357 397.728088,423.025696 
	C400.872620,423.975189 401.661377,422.809235 401.648895,420.022461 
	C401.622803,414.193237 401.589478,408.362976 401.671326,402.534729 
	C401.749878,396.943970 405.649506,392.796448 410.760315,392.689941 
	C416.154877,392.577545 420.214050,396.692108 420.316650,402.580109 
	C420.418243,408.407776 420.376373,414.238525 420.346130,420.067657 
	C420.331451,422.899628 421.169922,423.962311 424.283600,423.018707 
	C429.510101,421.434814 434.855194,420.221497 440.185425,419.005890 
	C446.772736,417.503662 451.488495,419.065948 453.262421,423.143921 
	C456.175354,429.840332 453.226807,435.219818 445.486969,437.282288 
	C440.369202,438.646027 435.239349,439.964508 430.123016,441.333496 
	C429.676239,441.453033 429.289917,441.798615 428.482605,442.267395 
	C431.225220,448.417023 436.044006,453.071869 439.675537,458.504303 
	C441.237610,460.840973 443.179688,462.960449 444.484589,465.424591 
	C447.225922,470.601166 445.936676,475.530182 441.431915,478.386627 
	C437.677338,480.767395 431.608185,479.443848 428.485260,475.391235 
	C424.234924,469.875702 420.129089,464.249084 415.917969,458.702972 
	C414.428009,456.740662 412.810883,454.874878 410.782166,452.389740 
	C404.997986,460.107849 399.422607,467.436279 393.976257,474.859406 
	C391.057739,478.837158 387.100677,480.150085 382.568756,479.172607 
	C379.068329,478.417603 377.073914,475.651947 376.293915,472.172241 
	C375.503815,468.647583 376.906769,465.701141 378.944153,462.962067 
	C384.041260,456.109467 389.137665,449.256317 394.618591,441.886810 
	C387.857361,440.206024 381.954956,438.705170 376.034393,437.279816 
	C372.626221,436.459259 369.859772,434.880463 368.255981,431.121582 
z"/>
<path fill="#000000" opacity="1.000000" stroke="none" 
	d="
M386.342712,170.999847 
	C386.741302,190.504257 384.952240,209.204742 379.493622,227.531189 
	C373.530212,247.552444 363.637634,265.368713 350.542297,281.522644 
	C333.243561,302.861755 311.384949,318.708130 288.410095,333.223938 
	C282.379272,337.034302 276.502655,341.097931 270.379395,344.750488 
	C261.219788,350.214294 251.671326,349.788025 243.081390,344.094452 
	C224.968994,332.089294 206.017487,321.194519 189.428650,307.070404 
	C173.848007,293.804718 160.228561,278.702789 149.860046,260.804504 
	C138.368179,240.966934 131.661896,219.790909 129.467072,196.965286 
	C128.698441,188.971680 128.726669,181.038116 128.703583,173.079773 
	C128.606461,139.595413 128.661148,106.110588 128.665604,72.625931 
	C128.666763,63.978333 129.694107,62.697365 137.527634,59.147152 
	C160.965424,48.524967 185.616623,42.028004 210.878403,37.826385 
	C232.257477,34.270550 253.916855,33.665363 275.480652,34.845016 
	C301.846252,36.287354 327.699738,41.330746 352.787476,49.724777 
	C362.053986,52.825237 371.111603,56.568333 380.191406,60.200928 
	C384.730286,62.016811 386.401672,65.661865 386.388245,70.545219 
	C386.296631,103.863235 386.341461,137.181625 386.342712,170.999847 
M231.575974,54.373558 
	C226.654770,55.022179 221.737366,55.701221 216.811722,56.314186 
	C194.789597,59.054680 173.743774,65.386978 153.087921,73.299614 
	C148.686462,74.985695 147.202560,77.355507 147.233719,82.115059 
	C147.451950,115.439430 147.386185,148.765976 147.321686,182.091644 
	C147.306198,190.093658 148.243698,198.006927 149.629929,205.822968 
	C156.395660,243.970322 177.800690,272.975006 207.366028,296.596130 
	C221.505829,307.893066 237.300110,316.865875 252.114304,327.222473 
	C255.902802,329.871063 259.003174,329.834442 262.517944,327.383698 
	C277.910370,316.650879 294.230377,307.285278 308.916809,295.500427 
	C319.864105,286.715942 329.926514,277.030792 338.457306,265.949921 
	C358.292114,240.185989 367.488556,210.721481 367.637726,178.336456 
	C367.706818,163.340164 367.650452,148.343307 367.649048,133.346695 
	C367.647430,115.684029 367.631805,98.021339 367.654297,80.358704 
	C367.657562,77.778984 367.624115,75.598007 364.545349,74.353615 
	C332.882019,61.555958 300.047028,54.270702 265.882751,53.410183 
	C254.758408,53.129986 243.596939,52.871349 231.575974,54.373558 
z"/>
<path fill="#000000" opacity="1.000000" stroke="none" 
	d="
M196.662170,216.998657 
	C196.664810,204.676910 196.626022,192.854614 196.683090,181.032791 
	C196.732483,170.800201 200.813690,162.588104 209.791382,157.465530 
	C212.955276,155.660248 213.679443,153.558502 213.708908,150.290161 
	C213.790070,141.291626 215.091614,132.647064 219.623260,124.497826 
	C232.102188,102.057083 262.952087,95.511192 283.356537,111.090096 
	C293.747864,119.023895 299.425720,129.240631 300.476746,142.283325 
	C300.754761,145.733383 301.480194,149.164124 301.351898,152.658188 
	C301.276031,154.724014 302.066528,156.123657 304.004761,156.983185 
	C314.608490,161.685379 317.790588,171.143784 318.171448,181.400803 
	C318.764130,197.363541 318.457123,213.365997 318.276703,229.348740 
	C318.170868,238.723526 315.091339,246.902039 307.269562,252.783325 
	C303.294830,255.772018 298.976013,257.401215 293.916260,257.383820 
	C270.438873,257.303070 246.944016,256.802887 223.489685,257.541382 
	C209.015045,257.997131 196.825027,246.142914 196.667908,230.985291 
	C196.621323,226.490097 196.661789,221.994019 196.662170,216.998657 
M215.502762,180.315521 
	C215.456436,196.478882 215.266342,212.643692 215.428085,228.804977 
	C215.502319,236.223648 218.288101,238.633926 225.568283,238.639343 
	C246.900223,238.655197 268.232178,238.658707 289.564117,238.637115 
	C295.382843,238.631226 298.139313,236.930145 298.774414,231.176041 
	C300.622040,214.436234 299.922363,197.601288 299.146484,180.834610 
	C298.871002,174.881012 294.950287,172.416550 288.743805,172.396744 
	C267.745453,172.329742 246.746674,172.362381 225.748108,172.388931 
	C220.766678,172.395233 217.019379,174.255005 215.502762,180.315521 
M265.496613,153.650085 
	C267.490753,153.651291 269.484894,153.646423 271.479004,153.654678 
	C284.848297,153.709961 283.220947,154.529419 281.581665,142.284210 
	C279.721436,128.388489 265.686737,118.939262 252.101578,122.237549 
	C239.289383,125.348183 233.218887,134.950806 232.306717,148.109100 
	C232.028610,152.120773 233.298294,153.828918 237.579147,153.713486 
	C246.546051,153.471680 255.524170,153.646042 265.496613,153.650085 
z"/>
<path fill="#000000" opacity="1.000000" stroke="none" 
	d="
M254.007874,188.701447 
	C261.379303,186.667526 266.246521,190.194458 266.321136,197.308029 
	C266.380371,202.957474 266.401428,208.608856 266.324280,214.257797 
	C266.252258,219.530701 263.573883,222.746552 258.999756,223.302231 
	C253.387955,223.983978 249.912567,221.893127 248.638382,216.569626 
	C246.920837,209.393845 247.203766,202.139160 248.464233,194.901672 
	C248.997559,191.839401 250.630157,189.764511 254.007874,188.701447 
z"/>
</svg>